<svg version="1.1" id="Layer_1" xmlns="http://www.w3.org/2000/svg" xmlns:xlink="http://www.w3.org/1999/xlink" x="0px" y="0px"
	 width="100%" viewBox="0 0 278 274" enable-background="new 0 0 278 274" xml:space="preserve">
<path fill="#000000" opacity="1.000000" stroke="none" 
	d="
M279.000000,101.000000 
	C279.000000,159.333328 279.000000,217.166672 279.000000,275.000000 
	C186.333328,275.000000 93.666664,275.000000 1.000000,275.000000 
	C1.000000,183.666672 1.000000,92.333336 1.000000,1.000000 
	C93.666664,1.000000 186.333328,1.000000 279.000000,1.000000 
	C279.000000,34.166668 279.000000,67.333336 279.000000,101.000000 
M45.608089,72.356445 
	C45.457993,72.722443 45.307896,73.088440 45.112469,73.968781 
	C44.761639,74.319405 44.410809,74.670036 43.581573,75.277252 
	C43.445194,75.601707 43.308811,75.926163 43.137325,76.128906 
	C43.137325,76.128906 43.263714,76.137329 42.676277,76.346527 
	C42.455925,76.901138 42.235569,77.455757 42.000153,78.000305 
	C42.000153,78.000305 42.013168,78.013702 41.525520,78.358032 
	C41.403107,78.728149 41.280689,79.098267 41.112633,79.974335 
	C40.778755,80.330826 40.444881,80.687317 39.380386,81.092987 
	C37.312157,85.569168 35.243923,90.045349 33.171997,95.096710 
	C32.812325,95.741211 32.452652,96.385719 31.536808,97.446358 
	C31.411190,98.109978 31.285572,98.773605 31.212351,99.776405 
	C31.212351,99.776405 30.954920,100.003387 30.478733,100.388565 
	C30.354700,100.969666 30.230667,101.550758 30.023808,102.059280 
	C30.023808,102.059280 30.131708,102.081314 29.375160,102.183693 
	C28.639280,105.304565 27.903402,108.425430 27.254417,112.055290 
	C27.132021,112.373253 27.009624,112.691208 26.407248,113.515694 
	C26.332378,114.197525 26.257507,114.879349 26.294701,116.061134 
	C26.174171,116.376335 26.053640,116.691536 25.388113,117.468445 
	C22.535931,121.022285 22.084461,124.867157 24.123230,129.670258 
	C24.046719,130.116379 23.970207,130.562515 23.434341,131.438080 
	C23.512564,132.610504 23.590786,133.782944 23.834852,135.874985 
	C23.788828,139.928726 23.742804,143.982452 23.311604,148.462982 
	C23.502581,149.305237 23.693558,150.147476 24.096537,151.719147 
	C24.082817,152.473755 24.069098,153.228348 23.548967,154.319199 
	C20.661501,157.023453 21.897734,158.730179 25.188108,160.608734 
	C25.290585,161.470108 25.393061,162.331497 25.311800,163.833405 
	C25.500072,164.219101 25.688345,164.604813 26.146358,165.516785 
	C26.211382,166.095078 26.276407,166.673355 26.246836,167.885605 
	C26.440685,168.253174 26.634537,168.620743 27.080231,169.535919 
	C27.088896,169.933640 27.097561,170.331375 27.024355,171.532364 
	C27.616100,173.025391 28.207848,174.518417 29.050056,176.459702 
	C29.091057,176.795197 29.132057,177.130707 29.025829,178.242142 
	C28.572405,184.738159 31.147209,189.885239 36.249775,194.121307 
	C36.249775,194.121307 36.210709,194.357834 36.244007,195.007629 
	C36.515327,195.329926 36.786648,195.652206 36.996716,195.988297 
	C36.996716,195.988297 37.040600,195.943359 37.043304,196.567383 
	C37.407452,197.026749 37.771603,197.486130 38.050442,197.953217 
	C38.050442,197.953217 38.090054,197.877258 38.085155,198.529800 
	C38.482040,198.988068 38.878925,199.446335 39.697659,200.117081 
	C39.863800,200.549042 40.029942,200.981018 40.083088,202.269516 
	C39.824387,204.503464 40.232208,206.204651 43.578430,206.264969 
	C43.834286,206.798615 44.090141,207.332275 43.728035,208.285736 
	C44.065094,210.231918 43.776394,212.696594 44.869743,214.016098 
	C47.131226,216.745346 51.672470,218.441193 52.466328,221.333313 
	C53.703014,225.838699 56.292698,224.856003 59.527142,225.105118 
	C59.695728,225.375717 59.864319,225.646317 60.023849,226.686691 
	C61.081257,227.403824 62.138664,228.120956 63.070187,228.934341 
	C63.070187,228.934341 63.153114,228.799301 63.130104,229.524414 
	C65.593681,231.306732 68.057266,233.089050 70.824409,234.921829 
	C71.043221,234.971771 71.197762,235.099487 71.121437,236.089569 
	C70.624466,237.516251 70.127487,238.942917 70.019676,239.252426 
	C73.379456,240.569626 76.360878,241.866302 79.432373,242.893707 
	C81.212616,243.489212 83.137733,243.651611 85.655205,244.050018 
	C86.768738,244.705444 87.882271,245.360870 89.407829,246.500839 
	C89.812508,246.598831 90.217186,246.696823 90.872002,246.750214 
	C90.872002,246.750214 91.000313,246.969513 91.081497,247.707413 
	C92.363808,248.794495 93.478462,250.326050 94.960030,250.884903 
	C99.321709,252.530167 103.815178,253.837570 108.301468,255.122162 
	C108.724327,255.243240 109.460228,254.271042 110.723885,253.809647 
	C111.152916,253.937363 111.581947,254.065079 112.485191,254.589172 
	C112.888512,254.631409 113.291824,254.673645 114.289757,254.616760 
	C114.863113,254.794708 115.436470,254.972641 116.521698,255.555801 
	C116.947166,255.548538 117.372627,255.541260 118.512070,255.466797 
	C119.680374,255.714615 120.848671,255.962433 122.573296,256.677216 
	C123.535255,256.737579 124.497215,256.797943 126.212242,256.724457 
	C127.476868,256.870605 128.741501,257.016754 130.189987,257.440399 
	C130.189987,257.440399 130.637451,257.531738 130.637451,257.531738 
	C130.637451,257.531738 130.990265,257.206818 131.921906,257.098297 
	C137.618423,257.140015 143.314941,257.181732 149.214386,257.486023 
	C149.214386,257.486023 149.669403,257.522217 149.669403,257.522217 
	C149.669403,257.522217 149.993027,257.164795 150.735626,256.960785 
	C152.259460,256.887299 153.783310,256.813843 156.022614,256.882477 
	C156.676941,256.651306 157.331253,256.420105 158.637497,255.972107 
	C159.091202,255.981491 159.544891,255.990875 160.507339,256.493774 
	C162.632523,256.328522 164.847839,256.478729 166.856293,255.904907 
	C168.685394,255.382339 170.289948,254.073837 172.394165,252.834152 
	C172.394165,252.834152 172.859924,252.690002 172.859924,252.690002 
	C172.859924,252.690002 173.341721,252.764755 174.078003,252.876846 
	C174.718277,252.589172 175.358536,252.301483 176.201920,251.753754 
	C176.201920,251.753754 176.519989,251.841599 177.422119,251.939667 
	C182.170395,252.286758 186.201416,250.996231 189.103317,246.712952 
	C189.103317,246.712952 189.297226,246.731354 190.179779,246.884186 
	C193.118546,245.760803 196.176315,244.872971 198.969589,243.461639 
	C203.774109,241.034149 208.413773,238.280380 213.762421,235.555984 
	C216.974854,232.710220 220.187286,229.864456 224.093338,226.767181 
	C224.366409,224.776367 224.639465,222.785553 225.059845,220.268524 
	C225.606918,219.805954 226.153992,219.343384 227.437759,218.851059 
	C227.838287,218.110336 228.238800,217.369629 228.900848,217.018723 
	C228.900848,217.018723 228.621368,216.640625 229.373199,216.791214 
	C234.675766,215.628922 235.602570,211.498001 235.999069,207.000122 
	C235.999069,207.000122 236.012238,207.004593 236.464752,206.730042 
	C236.591171,206.409912 236.717575,206.089783 236.875992,205.886414 
	C236.875992,205.886414 236.755142,205.879517 237.336395,205.661285 
	C237.555038,205.107864 237.773697,204.554443 237.998779,203.998886 
	C237.998779,203.998886 237.997635,203.991180 238.697601,203.873917 
	C239.098083,202.873444 239.498566,201.872986 239.975967,200.967926 
	C239.975967,200.967926 239.868317,200.909348 240.603622,200.895142 
	C246.443604,198.097855 249.633240,191.042572 247.565414,185.175766 
	C247.773376,184.787003 247.981339,184.398239 248.853043,183.865906 
	C249.940857,182.000778 253.813263,180.857208 250.489807,177.172302 
	C250.685577,176.778748 250.881332,176.385193 251.568802,175.544556 
	C251.664734,174.902817 251.760651,174.261093 251.753036,173.269913 
	C251.753036,173.269913 251.997574,172.999680 252.529694,172.502243 
	C252.616348,171.793198 252.703003,171.084167 252.688782,170.159943 
	C252.688782,170.159943 252.854858,169.989960 253.600815,169.853058 
	C253.831268,167.584778 254.061707,165.316513 254.197983,162.359497 
	C254.472260,161.239075 254.746536,160.118668 255.448318,158.734406 
	C255.387100,158.167358 255.325867,157.600327 255.121887,156.278214 
	C255.396622,154.521011 255.671356,152.763809 256.511536,150.483963 
	C256.440979,148.006195 256.370392,145.528412 256.075409,142.186874 
	C256.124969,140.113342 256.174561,138.039795 256.703979,135.328705 
	C256.122803,131.217560 255.541626,127.106422 254.682953,122.547043 
	C254.739334,122.212296 254.795700,121.877541 254.956299,120.556168 
	C254.967789,118.756912 255.238907,116.913834 254.943954,115.166306 
	C253.897964,108.969215 254.642883,102.007309 247.849396,97.671394 
	C247.849396,97.671394 247.890991,97.269203 247.961792,96.465729 
	C246.974915,94.644066 245.988022,92.822403 245.000000,91.000000 
	C245.000000,91.000000 244.999817,90.997841 244.981018,90.402496 
	C244.656952,89.933983 244.332870,89.465462 243.999390,88.999557 
	C243.999390,88.999557 244.005630,88.989708 244.025024,88.142059 
	C244.425735,84.135582 243.700729,80.828979 238.482498,79.763359 
	C238.284042,79.267685 238.085587,78.772018 237.953217,77.466660 
	C236.525879,74.697342 235.169495,71.888275 233.647537,69.171967 
	C232.537872,67.191452 231.035172,65.421394 230.016418,63.401779 
	C228.016312,59.436714 225.055679,57.147362 219.984451,56.989975 
	C219.251953,56.198708 218.519455,55.407436 217.872925,53.823559 
	C215.652435,48.625767 211.484268,45.978676 205.886322,44.191345 
	C204.821945,43.836628 203.757553,43.481911 202.199692,43.111607 
	C201.899963,42.960663 201.582306,42.883209 201.158981,42.423794 
	C201.158981,42.423794 200.999878,41.987980 200.797531,41.559189 
	C200.611526,41.296673 200.377930,41.087223 200.177765,40.255276 
	C201.649948,39.133190 203.122131,38.011105 205.396835,36.277336 
	C203.499451,35.726593 202.249420,35.363754 200.969940,34.542736 
	C200.856598,34.281502 200.743240,34.020264 200.629883,33.759026 
	C200.512299,33.840359 200.394699,33.921688 200.277130,34.003014 
	C200.518311,34.335159 200.759491,34.667301 200.797577,35.777653 
	C198.025452,36.247208 195.253342,36.716766 192.174271,37.239235 
	C192.174271,37.239235 191.998322,36.982216 191.630585,36.517807 
	C191.261398,36.399925 190.892227,36.282047 190.202148,36.179832 
	C190.202148,36.179832 189.993820,35.935287 189.599594,35.487633 
	C189.222366,35.383343 188.845123,35.279053 187.949768,35.172073 
	C187.610229,35.163025 187.270691,35.153976 186.958374,34.944935 
	C186.958374,34.944935 187.057648,34.769199 186.733261,34.393074 
	C186.465469,34.171955 186.157990,34.065544 185.342834,34.092529 
	C185.342834,34.092529 184.982025,33.793964 184.680740,33.414906 
	C184.407928,33.199081 184.101624,33.128532 183.872208,33.107197 
	C183.872208,33.107197 183.821350,33.244415 183.850754,32.504753 
	C181.518570,27.139860 177.420685,28.081694 172.594894,29.507839 
	C172.018387,29.480543 171.441879,29.453247 170.888519,29.182581 
	C170.888519,29.182581 171.008835,28.969769 170.567932,28.460392 
	C169.919220,28.355862 169.270493,28.251331 168.283569,28.253996 
	C168.283569,28.253996 168.007095,28.031662 167.487793,27.465240 
	C166.478729,27.372936 165.469666,27.280632 163.914078,27.348650 
	C163.555542,27.437828 163.197021,27.527006 162.839691,27.317274 
	C162.839691,27.317274 162.956085,27.041954 162.973282,26.312397 
	C162.451706,25.602903 161.930115,24.893410 161.408524,24.183922 
	C160.573944,24.888916 159.739365,25.593912 158.251923,26.450626 
	C157.835403,26.308626 157.418869,26.166626 156.854706,25.688225 
	C156.571899,25.758022 156.289093,25.827820 155.263489,26.051535 
	C154.507660,26.049807 153.751816,26.048079 152.538849,25.746965 
	C152.367126,25.807684 152.195404,25.868404 151.500397,25.648338 
	C151.342758,25.528608 151.185135,25.408880 150.732849,24.726204 
	C149.162430,24.794062 147.592026,24.861917 145.110580,25.129801 
	C141.069427,25.072079 137.028259,25.014355 132.592697,24.480553 
	C131.384781,24.740845 130.176865,25.001137 128.197830,25.617085 
	C126.792992,25.694437 125.388161,25.771790 123.639191,25.448080 
	C123.090012,25.673254 122.540840,25.898428 121.390877,26.468716 
	C120.254715,26.591837 119.118546,26.714960 117.625137,26.442514 
	C117.079506,26.687185 116.533875,26.931856 115.819397,27.301779 
	C115.819397,27.301779 115.644379,27.185305 114.645386,27.061216 
	C109.640770,27.795683 104.417976,27.870941 99.688370,29.436323 
	C94.139832,31.272755 88.975845,34.320415 83.758369,37.058613 
	C82.899025,37.509605 82.620918,39.068111 82.041595,40.015045 
	C82.041595,40.015045 82.117989,40.086971 81.298019,40.023823 
	C77.309654,39.513714 75.229187,41.692371 73.857956,45.624832 
	C73.549965,45.742046 73.241966,45.859261 72.233665,45.978504 
	C71.495171,46.668613 70.756676,47.358723 69.807442,48.544159 
	C69.487251,48.678528 69.167061,48.812901 68.075775,48.952538 
	C64.763588,49.954365 60.337528,49.759495 61.212048,55.198963 
	C61.212048,55.198963 61.319580,55.230183 60.754185,55.346447 
	C60.576431,55.669430 60.398674,55.992413 60.185760,56.203873 
	C60.185760,56.203873 60.292187,56.252316 59.492722,56.117352 
	C56.503304,55.993629 55.817871,57.696796 56.165348,60.150288 
	C56.165348,60.150288 56.273556,60.188927 55.731041,60.335159 
	C55.552654,60.649361 55.374268,60.963562 55.149128,61.166107 
	C55.149128,61.166107 55.259285,61.216297 54.528778,61.157635 
	C51.424797,62.540203 48.822128,64.304581 48.954674,68.849152 
	C48.288128,69.563515 47.621578,70.277885 46.515671,71.245598 
	C46.371624,71.543671 46.227577,71.841736 46.059326,72.061119 
	C46.059326,72.061119 46.141605,72.063866 45.608089,72.356445 
M68.275162,40.907681 
	C68.176567,40.933220 68.077980,40.958759 67.733528,41.100655 
	C67.827881,41.074253 67.922226,41.047855 68.275162,40.907681 
M57.708553,49.085381 
	C57.820438,49.068253 57.932323,49.051125 58.293312,48.904518 
	C58.184425,48.922024 58.075535,48.939526 57.708553,49.085381 
M53.551208,53.200226 
	C53.290596,53.402218 53.096432,53.655209 52.540554,54.195004 
	C52.273476,54.397091 52.077721,54.653610 51.542568,55.203629 
	C51.285774,55.401592 51.090538,55.648281 50.697174,56.080563 
	C50.818184,56.068890 50.939198,56.057217 51.466297,55.799328 
	C51.719749,55.597008 51.909996,55.346657 52.463478,54.808582 
	C52.729214,54.603947 52.922031,54.345005 53.459805,53.790947 
	C53.723537,53.590508 53.915382,53.335896 54.284206,52.902908 
	C54.180550,52.923767 54.076893,52.944622 53.551208,53.200226 
M168.102707,261.252197 
	C168.179596,261.297546 168.256485,261.342865 168.333374,261.388184 
	C168.222855,261.258362 168.112335,261.128571 167.897491,260.748138 
	C167.820328,260.702759 167.743179,260.657379 167.666016,260.612000 
	C167.776871,260.742096 167.887726,260.872162 168.102707,261.252197 
M240.606003,211.237457 
	C240.617523,211.569962 240.629059,211.902466 240.640579,212.234970 
	C240.763992,211.826096 240.887405,211.417221 241.259796,210.898895 
	C241.170425,210.929016 241.081055,210.959137 240.606003,211.237457 
M43.900097,218.731735 
	C43.819115,218.687958 43.738132,218.644196 43.657150,218.600418 
	C43.765388,218.738281 43.873631,218.876144 44.234169,219.398773 
	C44.569588,219.387009 44.905010,219.375244 45.240429,219.363495 
	C44.831650,219.236176 44.422874,219.108841 43.900097,218.731735 
M19.458246,114.464798 
	C19.303297,115.641060 19.148350,116.817329 18.459309,118.502457 
	C17.978514,120.660278 17.497719,122.818092 17.089607,125.565079 
	C17.490044,125.880043 17.890480,126.195007 18.290916,126.509979 
	C18.523701,126.002113 18.756483,125.494255 19.003088,124.113731 
	C19.004114,122.077103 19.005138,120.040466 19.550879,117.540123 
	C19.701387,116.360596 19.851896,115.181061 20.459633,113.656425 
	C20.499874,113.131706 20.540117,112.606979 20.580360,112.082260 
	C20.417404,112.079079 20.254446,112.075905 20.091490,112.072731 
	C20.060019,112.714195 20.028549,113.355659 19.458246,114.464798 
M259.503571,172.598633 
	C259.594452,171.799454 259.685364,171.000275 259.776245,170.201096 
	C259.512085,170.185165 259.247955,170.169250 258.983795,170.153336 
	C258.983795,171.098419 258.983795,172.043503 258.570251,173.214783 
	C258.585724,173.565582 258.601166,173.916397 258.616638,174.267197 
	C258.749329,173.849854 258.881989,173.432495 259.503571,172.598633 
M190.896912,28.733158 
	C190.814331,28.688250 190.731750,28.643341 190.649185,28.598423 
	C190.763458,28.734377 190.877731,28.870331 191.008652,29.710571 
	C191.482101,30.406668 191.955536,31.102764 192.428986,31.798862 
	C192.817627,31.420023 193.206253,31.041185 193.594894,30.662352 
	C192.731918,30.105663 191.868927,29.548975 190.896912,28.733158 
M22.450922,102.444351 
	C21.916943,104.242241 21.382963,106.040123 20.848984,107.838013 
	C21.222584,107.925560 21.596184,108.013115 21.969784,108.100662 
	C22.319006,106.070915 22.668228,104.041176 23.479000,101.667885 
	C23.518057,101.133324 23.557114,100.598763 23.596170,100.064201 
	C23.437767,100.059990 23.279364,100.055779 23.120958,100.051567 
	C23.074919,100.695358 23.028879,101.339157 22.450922,102.444351 
M247.977829,81.530159 
	C247.860840,81.270859 247.743851,81.011559 247.626846,80.752251 
	C247.509964,80.834908 247.287491,80.984627 247.291290,80.990623 
	C247.511566,81.337433 247.750595,81.672325 247.989151,82.841438 
	C248.297638,84.965912 246.875641,88.099075 251.024658,88.462822 
	C251.136444,88.727722 251.248230,88.992622 251.360016,89.257515 
	C251.478699,89.175377 251.597397,89.093239 251.716064,89.011108 
	C251.477783,88.673126 251.239502,88.335144 250.928711,87.305344 
	C249.956772,85.532524 248.984833,83.759705 247.977829,81.530159 
M18.980173,164.745758 
	C19.056112,165.815048 19.132051,166.884338 19.207991,167.953629 
	C19.519093,167.887894 19.830194,167.822159 20.141296,167.756424 
	C19.767300,166.500183 19.393303,165.243927 19.017212,163.101013 
	C18.584503,158.436050 18.151796,153.771088 17.719090,149.106125 
	C17.256638,149.177780 16.794188,149.249451 16.331736,149.321106 
	C17.213648,154.221436 18.095560,159.121750 18.980173,164.745758 
M254.046356,96.709953 
	C255.065933,99.548676 256.085510,102.387405 257.105103,105.226128 
	C257.563904,105.044807 258.022705,104.863480 258.481506,104.682152 
	C256.889801,100.605759 255.298065,96.529366 253.706345,92.452965 
	C253.350464,92.593491 252.994583,92.734024 252.638687,92.874550 
	C253.053467,93.921867 253.468246,94.969185 254.046356,96.709953 
M183.930298,25.484684 
	C182.320847,24.967691 180.711380,24.450699 179.101929,23.933708 
	C178.991608,24.290686 178.881302,24.647665 178.770981,25.004642 
	C181.698715,26.175661 184.626450,27.346680 187.554199,28.517698 
	C187.703873,28.154900 187.853546,27.792103 188.003220,27.429304 
	C186.860550,26.889057 185.717880,26.348810 183.930298,25.484684 
M255.791504,184.959732 
	C256.252502,183.315170 256.713501,181.670609 257.174500,180.026062 
	C256.569733,179.975494 255.964951,179.924927 255.360184,179.874359 
	C255.360184,181.737854 255.360184,183.601364 255.791504,184.959732 
M258.761414,111.574234 
	C258.974945,112.071388 259.188446,112.568550 259.401978,113.065704 
	C259.647675,112.991707 259.893372,112.917702 260.139038,112.843704 
	C259.857086,111.446068 259.575134,110.048431 259.293182,108.650795 
	C258.934753,108.714935 258.576355,108.779076 258.217957,108.843216 
	C258.314758,109.560280 258.411560,110.277344 258.761414,111.574234 
M17.911037,145.344437 
	C17.681211,144.777115 17.451385,144.209793 17.221560,143.642471 
	C16.847128,144.063828 16.472696,144.485184 16.098267,144.906540 
	C16.650524,145.261887 17.202784,145.617249 17.911037,145.344437 
M130.558685,18.893137 
	C132.291733,18.893137 134.024796,18.893137 135.757843,18.893137 
	C135.725143,18.563435 135.692459,18.233730 135.659760,17.904028 
	C133.808578,18.082985 131.957397,18.261942 130.558685,18.893137 
M123.310112,19.057354 
	C122.553528,19.057354 121.796951,19.057354 121.040367,19.057354 
	C121.229790,19.515911 121.419205,19.974466 121.608620,20.433023 
	C122.380447,20.024607 123.152275,19.616190 123.310112,19.057354 
M205.089355,244.306549 
	C204.572556,244.490372 204.055740,244.674194 203.538940,244.858017 
	C203.659149,245.124878 203.779373,245.391754 203.899582,245.658615 
	C204.431641,245.347412 204.963699,245.036209 205.089355,244.306549 
M197.425735,31.777079 
	C196.858841,31.713608 196.291962,31.650137 195.725067,31.586664 
	C195.813278,31.966665 195.901489,32.346668 195.989700,32.726669 
	C196.619461,32.506413 197.249237,32.286152 197.425735,31.777079 
M260.848053,166.651276 
	C260.848053,165.763092 260.848053,164.874924 260.848053,163.986740 
	C260.602753,163.988525 260.357452,163.990311 260.112183,163.992111 
	C260.223633,165.001877 260.335083,166.011658 260.848053,166.651276 
M171.474091,259.717834 
	C171.730011,259.986847 171.985931,260.255859 172.241867,260.524872 
	C172.353195,260.418274 172.567413,260.225220 172.561020,260.217590 
	C172.322662,259.934113 172.063934,259.667786 171.474091,259.717834 
M145.813416,263.430298 
	C145.808868,263.798248 145.804337,264.166229 145.799789,264.534180 
	C145.952438,264.535950 146.237762,264.548187 146.238571,264.537964 
	C146.267471,264.171814 146.269791,263.803558 145.813416,263.430298 
M249.350906,197.610199 
	C249.017822,197.693741 248.684738,197.777283 248.351654,197.860840 
	C248.654663,197.907852 248.957672,197.954849 249.350906,197.610199 
M175.063950,23.806639 
	C175.403778,23.659519 175.743591,23.512400 176.083420,23.365278 
	C175.662323,23.396370 175.241211,23.427464 175.063950,23.806639 
M253.194244,188.034943 
	C253.283295,188.423019 253.372330,188.811096 253.461380,189.199173 
	C253.576889,189.113571 253.799286,189.014038 253.790253,188.944656 
	C253.739059,188.551361 253.632477,188.165268 253.194244,188.034943 
M21.820000,173.087128 
	C21.597855,173.134781 21.375711,173.182434 21.153566,173.230087 
	C21.233166,173.520126 21.312765,173.810150 21.392372,174.100189 
	C21.561344,173.901672 21.730318,173.703140 21.820000,173.087128 
M157.520660,19.906609 
	C157.714294,19.731644 157.907944,19.556681 158.101578,19.381718 
	C157.808746,19.306627 157.515915,19.231537 157.223083,19.156448 
	C157.182449,19.382277 157.141815,19.608105 157.520660,19.906609 
M176.354980,258.608521 
	C176.019653,258.692596 175.684311,258.776703 175.348984,258.860779 
	C175.653961,258.908051 175.958939,258.955322 176.354980,258.608521 
M17.626595,137.362488 
	C17.510664,137.134857 17.394733,136.907227 17.278797,136.679596 
	C17.072229,136.881119 16.865664,137.082642 16.659101,137.284180 
	C16.883804,137.406052 17.108505,137.527924 17.626595,137.362488 
M262.822266,135.083984 
	C262.597931,135.131866 262.373627,135.179764 262.149292,135.227646 
	C262.229736,135.519150 262.310211,135.810654 262.390656,136.102158 
	C262.561493,135.902725 262.732330,135.703278 262.822266,135.083984 
M111.002563,261.263702 
	C111.159050,261.010406 111.315536,260.757080 111.472023,260.503784 
	C111.219421,260.662476 110.966827,260.821167 111.002563,261.263702 
M257.239410,177.187851 
	C257.416901,177.128311 257.594391,177.068771 257.771881,177.009216 
	C257.593964,176.952545 257.416077,176.895874 257.239410,177.187851 
M113.837357,20.719072 
	C113.981995,20.614498 114.126633,20.509924 114.271278,20.405354 
	C114.072403,20.425228 113.873520,20.445105 113.837357,20.719072 
M236.475021,65.327316 
	C236.403488,65.260277 236.331955,65.193237 236.475021,65.327316 
M234.523743,62.673347 
	C234.595093,62.740314 234.666443,62.807278 234.523743,62.673347 
M234.331985,220.522354 
	C234.127014,220.535400 233.922043,220.548447 233.717072,220.561493 
	C233.854156,220.621277 233.991257,220.681061 234.331985,220.522354 
M103.833450,258.716583 
	C103.916328,258.568909 103.999207,258.421234 104.082085,258.273560 
	C103.945633,258.337585 103.809181,258.401611 103.833450,258.716583 
M81.832062,32.720760 
	C81.977249,32.615353 82.122437,32.509949 82.267624,32.404545 
	C82.067780,32.424847 81.867935,32.445148 81.832062,32.720760 
M107.262047,260.160339 
	C107.390961,260.039551 107.519882,259.918762 107.648788,259.797943 
	C107.518921,259.818604 107.389046,259.839264 107.262047,260.160339 
M49.429623,225.485443 
	C49.429623,225.485443 49.521652,225.434464 49.429623,225.485443 
M179.512878,257.429565 
	C179.512878,257.429565 179.563782,257.521118 179.512878,257.429565 
M235.484970,218.574463 
	C235.484970,218.574463 235.431213,218.478882 235.484970,218.574463 
M165.483994,20.575756 
	C165.483994,20.575756 165.428513,20.478413 165.483994,20.575756 
M212.430511,240.485703 
	C212.430511,240.485703 212.520447,240.436264 212.430511,240.485703 
M117.571213,20.515686 
	C117.571213,20.515686 117.477631,20.567982 117.571213,20.515686 
M199.577087,249.513748 
	C199.577087,249.513748 199.477646,249.570724 199.577087,249.513748 
M30.517252,83.419243 
	C30.517252,83.419243 30.578501,83.524574 30.517252,83.419243 
M16.428139,140.486755 
	C16.428139,140.486755 16.521646,140.434372 16.428139,140.486755 
M42.568707,216.513031 
	C42.568707,216.513031 42.479225,216.562225 42.568707,216.513031 
M41.482765,214.582077 
	C41.482765,214.582077 41.422283,214.478531 41.482765,214.582077 
M243.424362,208.484726 
	C243.424362,208.484726 243.520493,208.430481 243.424362,208.484726 
M43.421406,64.485420 
	C43.421406,64.485420 43.523174,64.426880 43.421406,64.485420 
M26.573212,188.514175 
	C26.573212,188.514175 26.478767,188.567291 26.573212,188.514175 
M25.514648,185.425522 
	C25.514648,185.425522 25.569012,185.521988 25.514648,185.425522 
M244.430038,76.486046 
	C244.430038,76.486046 244.519623,76.436951 244.430038,76.486046 
z"/>
<path fill="#9EE0F4" opacity="1.000000" stroke="none" 
	d="
M30.954920,100.003387 
	C30.954920,100.003387 31.212351,99.776405 31.446636,99.387772 
	C31.818274,98.342834 31.955626,97.686523 32.092976,97.030220 
	C32.452652,96.385719 32.812325,95.741211 33.455338,94.578445 
	C35.862785,89.721390 37.986889,85.382599 40.111000,81.043808 
	C40.444881,80.687317 40.778755,80.330826 41.398460,79.564377 
	C41.793911,78.774178 41.903542,78.393936 42.013168,78.013702 
	C42.013168,78.013702 42.000153,78.000305 42.279671,77.875473 
	C42.794033,77.212868 43.028873,76.675102 43.263714,76.137329 
	C43.263714,76.137329 43.137325,76.128906 43.414314,76.084076 
	C43.814194,75.699715 43.937088,75.360191 44.059978,75.020668 
	C44.410809,74.670036 44.761639,74.319405 45.406006,73.569443 
	C45.846893,72.801353 45.994247,72.432610 46.141602,72.063866 
	C46.141605,72.063866 46.059326,72.061119 46.326584,72.012703 
	C46.714237,71.640274 46.834637,71.316261 46.955032,70.992249 
	C47.621578,70.277885 48.288128,69.563515 49.333534,68.402504 
	C51.561356,65.709335 53.410320,63.462814 55.259285,61.216297 
	C55.259285,61.216297 55.149128,61.166107 55.435890,61.137955 
	C55.906288,60.802845 56.089920,60.495888 56.273556,60.188927 
	C56.273556,60.188927 56.165348,60.150288 56.491524,60.089775 
	C57.975864,58.770279 59.134026,57.511299 60.292187,56.252316 
	C60.292187,56.252316 60.185760,56.203873 60.474030,56.184517 
	C60.948059,55.853497 61.133816,55.541840 61.319580,55.230179 
	C61.319580,55.230183 61.212048,55.198963 61.554138,55.153160 
	C64.213104,53.053997 66.529984,51.000633 68.846863,48.947269 
	C69.167061,48.812901 69.487251,48.678528 70.221344,48.254799 
	C71.401482,47.302448 72.167725,46.639462 72.933975,45.976479 
	C73.241966,45.859261 73.549965,45.742046 74.304321,45.333679 
	C77.206451,43.390675 79.662216,41.738823 82.117989,40.086967 
	C82.117989,40.086971 82.041595,40.015045 82.414993,40.016197 
	C93.740379,35.739998 104.692383,31.462650 115.644379,27.185303 
	C115.644379,27.185305 115.819397,27.301779 116.249992,27.311028 
	C117.114517,27.159544 117.548454,26.998812 117.982384,26.838081 
	C119.118546,26.714960 120.254715,26.591837 122.032471,26.390232 
	C123.110481,26.157547 123.546906,26.003344 123.983322,25.849142 
	C125.388161,25.771790 126.792992,25.694437 128.909363,25.568371 
	C130.742966,25.331982 131.865036,25.144306 132.987106,24.956631 
	C137.028259,25.014355 141.069427,25.072079 145.886566,25.201286 
	C148.117523,25.278233 149.572510,25.283691 151.027496,25.289150 
	C151.185135,25.408880 151.342758,25.528608 151.819870,25.969137 
	C152.424896,26.208740 152.710434,26.127546 152.995987,26.046350 
	C153.751816,26.048079 154.507660,26.049807 155.869263,26.121155 
	C156.650803,26.135393 156.826569,26.080009 157.002350,26.024624 
	C157.418869,26.166626 157.835403,26.308626 158.859467,26.591227 
	C160.630051,26.835201 161.793060,26.938578 162.956085,27.041954 
	C162.956085,27.041954 162.839691,27.317274 162.918549,27.707680 
	C163.661423,28.093618 164.325439,28.089151 165.334152,28.063587 
	C166.108917,28.195789 166.538986,28.349089 167.030212,28.776228 
	C167.728836,29.397491 168.366257,29.744913 169.057983,30.449326 
	C169.619812,31.426481 170.004730,32.376438 170.653183,32.617519 
	C180.991882,36.461182 189.954193,42.598217 198.146790,49.759678 
	C212.184906,62.030956 223.374252,76.552780 230.859314,93.739021 
	C235.828583,105.148819 239.305222,117.157990 239.747879,129.493652 
	C240.148438,140.656601 241.709625,152.034210 238.101730,163.151276 
	C234.813461,173.283508 233.524673,184.338531 228.756668,193.657623 
	C219.794724,211.173843 207.240005,226.295792 191.043472,237.901642 
	C184.632736,242.495346 177.764435,246.450516 171.258118,250.598465 
	C172.280228,250.914307 173.637039,251.333557 174.699203,251.902969 
	C174.050278,252.290329 173.695999,252.527542 173.341721,252.764771 
	C173.341721,252.764755 172.859924,252.690002 172.859924,252.690002 
	C172.859924,252.690002 172.394165,252.834152 171.800049,252.941238 
	C167.470169,254.032318 163.734375,255.016296 159.998596,256.000275 
	C159.544891,255.990875 159.091202,255.981491 157.957123,256.019043 
	C156.620209,256.290802 155.963669,256.515564 155.307144,256.740356 
	C153.783310,256.813843 152.259460,256.887299 150.114563,257.004242 
	C149.332809,257.106293 149.172134,257.164886 149.011459,257.223480 
	C143.314941,257.181732 137.618423,257.140015 131.213608,257.061951 
	C130.338928,257.071350 130.172531,257.117126 130.006119,257.162903 
	C128.741501,257.016754 127.476868,256.870605 125.535522,256.585144 
	C123.911530,256.367310 122.964256,256.288788 122.016975,256.210236 
	C120.848671,255.962433 119.680374,255.714615 117.895386,255.309723 
	C116.855736,255.151962 116.432785,255.151276 116.009827,255.150574 
	C115.436470,254.972641 114.863113,254.794708 113.771217,254.437485 
	C112.838776,254.236420 112.424873,254.214615 112.010971,254.192810 
	C111.581947,254.065079 111.152916,253.937363 110.134712,253.552109 
	C103.363800,251.186218 97.182060,249.077866 91.000313,246.969513 
	C91.000313,246.969513 90.872002,246.750214 90.556290,246.510376 
	C89.825653,246.185776 89.410728,246.101028 88.995804,246.016296 
	C87.882271,245.360870 86.768738,244.705444 85.146606,243.742218 
	C80.188026,240.724594 75.738029,238.014771 71.288033,235.304947 
	C71.197762,235.099487 71.043221,234.971771 70.518913,234.582764 
	C67.859985,232.428879 65.506554,230.614090 63.153114,228.799301 
	C63.153114,228.799301 63.070187,228.934341 63.013317,228.594208 
	C61.981934,227.475006 61.007423,226.695953 60.032913,225.916901 
	C59.864319,225.646317 59.695728,225.375717 59.175747,224.724823 
	C53.998230,218.851669 49.172108,213.358795 44.345993,207.865921 
	C44.090141,207.332275 43.834286,206.798615 43.264778,205.786011 
	C42.032780,204.009018 41.114433,202.710999 40.196083,201.412979 
	C40.029942,200.981018 39.863800,200.549042 39.465755,199.697449 
	C38.852585,198.810974 38.471321,198.344116 38.090054,197.877258 
	C38.090054,197.877258 38.050442,197.953217 38.077370,197.644684 
	C37.749733,196.871887 37.395164,196.407623 37.040596,195.943359 
	C37.040600,195.943359 36.996716,195.988297 37.012817,195.656158 
	C36.756184,195.001968 36.483444,194.679901 36.210709,194.357834 
	C36.210709,194.357834 36.249775,194.121307 36.131744,193.692993 
	C33.733494,187.998535 31.453276,182.732361 29.173058,177.466202 
	C29.132057,177.130707 29.091057,176.795197 28.942204,175.881226 
	C28.258308,173.778183 27.682266,172.253647 27.106224,170.729095 
	C27.097561,170.331375 27.088896,169.933640 26.999378,168.944031 
	C26.726162,167.985306 26.533796,167.618484 26.341431,167.251648 
	C26.276407,166.673355 26.211382,166.095078 26.064375,164.935089 
	C25.820107,163.966568 25.657820,163.579712 25.495537,163.192871 
	C25.393061,162.331497 25.290585,161.470108 25.122490,159.919525 
	C24.723042,157.481186 24.389210,155.732071 24.055380,153.982956 
	C24.069098,153.228348 24.082817,152.473755 24.069374,150.984894 
	C23.927069,149.512482 23.811924,148.774338 23.696779,148.036194 
	C23.742804,143.982452 23.788828,139.928726 23.889187,135.037979 
	C23.926914,133.136856 23.910305,132.072754 23.893696,131.008636 
	C23.970207,130.562515 24.046719,130.116379 24.231232,128.983307 
	C24.870525,124.533150 25.401819,120.769943 25.933113,117.006737 
	C26.053640,116.691536 26.174171,116.376335 26.487797,115.562737 
	C26.749670,114.379280 26.818447,113.694221 26.887228,113.009163 
	C27.009624,112.691208 27.132021,112.373253 27.482573,111.516495 
	C28.517721,108.012245 29.324715,105.046776 30.131708,102.081314 
	C30.131708,102.081314 30.023808,102.059280 30.310547,101.912529 
	C30.716496,101.178314 30.835707,100.590851 30.954920,100.003387 
M112.408951,97.491798 
	C107.110748,100.904335 111.648758,106.587898 109.126892,111.128937 
	C107.568665,111.128937 105.772453,111.129181 103.976234,111.128906 
	C91.310287,111.126930 78.643997,111.175148 65.978607,111.090302 
	C62.454411,111.066689 60.073219,112.009361 60.075500,116.027473 
	C60.085064,132.859619 60.082840,149.691772 60.098469,166.523926 
	C60.101578,169.869705 61.840511,171.224960 65.151237,171.190903 
	C73.816452,171.101776 82.483231,171.166931 91.149391,171.168991 
	C97.263672,171.170441 103.377945,171.169266 109.909134,171.169266 
	C109.909134,173.353088 109.909035,174.980377 109.909149,176.607651 
	C109.910088,189.606918 109.984360,202.606827 109.866753,215.605026 
	C109.832069,219.438019 111.365509,221.069534 115.177025,221.055771 
	C131.675858,220.996140 148.175079,221.006592 164.674011,221.048264 
	C168.466721,221.057846 170.147064,219.354996 169.990234,215.547501 
	C169.849854,212.138840 169.960693,208.719833 169.960693,205.182953 
	C187.462860,208.724182 192.020096,201.444458 191.396805,186.895401 
	C199.635895,185.119858 203.272552,179.096848 205.026459,171.176407 
	C207.644989,171.176407 210.117508,171.184555 212.589966,171.174850 
	C219.274033,171.148621 219.782974,170.676254 219.787399,164.136688 
	C219.797775,148.804245 219.786148,133.471771 219.766296,118.139336 
	C219.758301,111.949730 218.995926,111.148224 212.964096,111.134293 
	C201.131500,111.106972 189.298782,111.125038 177.466125,111.124382 
	C175.052826,111.124252 172.639526,111.124367 169.960022,111.124367 
	C169.960022,96.018669 169.893173,81.702820 170.004837,67.388359 
	C170.034454,63.590698 169.007614,61.295185 164.747269,61.307735 
	C148.081711,61.356850 131.415924,61.325127 114.750221,61.324745 
	C111.497299,61.324673 109.828735,62.820847 109.892433,66.208450 
	C109.973877,70.540016 109.612717,74.905403 110.057320,79.192436 
	C110.242439,80.977379 112.014191,82.597771 113.106934,85.182442 
	C113.076363,89.127930 113.045792,93.073418 112.408951,97.491798 
z"/>
<path fill="#85D9F2" opacity="1.000000" stroke="none" 
	d="
M174.993851,251.752823 
	C173.637039,251.333557 172.280228,250.914307 171.258118,250.598465 
	C177.764435,246.450516 184.632736,242.495346 191.043472,237.901642 
	C207.240005,226.295792 219.794724,211.173843 228.756668,193.657623 
	C233.524673,184.338531 234.813461,173.283508 238.101730,163.151276 
	C241.709625,152.034210 240.148438,140.656601 239.747879,129.493652 
	C239.305222,117.157990 235.828583,105.148819 230.859314,93.739021 
	C223.374252,76.552780 212.184906,62.030956 198.146790,49.759678 
	C189.954193,42.598217 180.991882,36.461182 170.653183,32.617519 
	C170.004730,32.376438 169.619812,31.426481 169.071396,30.176935 
	C169.022400,29.366524 169.014313,29.185495 169.342255,28.995445 
	C170.121796,28.980869 170.565323,28.975319 171.008835,28.969769 
	C171.008835,28.969769 170.888519,29.182581 171.015976,29.629921 
	C172.752884,30.388350 174.362335,30.699434 176.238617,31.012827 
	C176.656693,31.108767 176.807938,31.202398 177.077209,31.649101 
	C178.349701,32.206432 179.504166,32.410690 180.982025,32.653648 
	C182.144058,32.876373 182.982712,33.060394 183.821350,33.244415 
	C183.821350,33.244415 183.872208,33.107197 183.942902,33.376205 
	C184.336411,33.694801 184.659225,33.744381 184.982025,33.793964 
	C184.982025,33.793964 185.342834,34.092529 185.706421,34.312668 
	C186.399216,34.611603 186.728424,34.690403 187.057648,34.769199 
	C187.057648,34.769199 186.958374,34.944935 187.008728,35.352654 
	C188.370026,36.199341 189.680984,36.638306 191.245331,37.072762 
	C191.665268,37.039577 191.831802,37.010899 191.998322,36.982216 
	C191.998322,36.982216 192.174271,37.239235 192.420837,37.452793 
	C192.768066,37.805313 192.868744,37.944275 193.121002,38.296162 
	C193.599365,38.584942 193.926163,38.660797 194.187653,38.797630 
	C194.122360,38.858612 194.197281,38.696396 194.317871,39.004929 
	C195.042313,39.500076 195.646164,39.686687 196.513229,39.919052 
	C197.194168,40.277699 197.611908,40.590595 198.170776,41.165810 
	C198.846649,41.634399 199.381393,41.840675 199.945023,42.025482 
	C199.973923,42.004013 199.969757,42.075905 200.114563,42.303345 
	C200.588486,42.646935 200.917603,42.763084 201.246719,42.879234 
	C201.582306,42.883209 201.899963,42.960663 202.597992,43.396385 
	C203.651199,44.204659 204.306107,44.728153 205.024994,45.560745 
	C205.786118,46.209255 206.483276,46.548660 207.501007,46.989098 
	C211.143372,49.598804 214.465164,52.107483 217.786957,54.616165 
	C218.519455,55.407436 219.251953,56.198708 220.391388,57.400665 
	C226.494598,64.633026 232.190857,71.454689 237.887115,78.276352 
	C238.085587,78.772018 238.284042,79.267685 238.771759,80.235489 
	C240.709213,83.468323 242.357422,86.229019 244.005630,88.989708 
	C244.005630,88.989708 243.999390,88.999557 244.004791,89.294632 
	C244.340073,90.059082 244.669952,90.528458 244.999817,90.997841 
	C244.999817,90.997841 245.000000,91.000000 245.022964,91.352623 
	C245.994293,93.559898 246.942642,95.414551 247.890991,97.269203 
	C247.890991,97.269203 247.849396,97.671394 247.956329,98.209984 
	C250.326218,106.346649 252.589157,113.944725 254.852081,121.542786 
	C254.795700,121.877541 254.739334,122.212296 254.750992,123.209915 
	C255.287415,127.903954 255.755783,131.935104 256.224152,135.966263 
	C256.174561,138.039795 256.124969,140.113342 256.043915,143.039825 
	C255.990295,146.264053 255.968185,148.635330 255.946075,151.006607 
	C255.671356,152.763809 255.396622,154.521011 255.032745,156.960999 
	C254.969360,158.095276 254.995087,158.546753 255.020813,158.998245 
	C254.746536,160.118668 254.472260,161.239075 254.061157,163.052063 
	C253.567825,165.826416 253.211334,167.908188 252.854858,169.989960 
	C252.854858,169.989960 252.688782,170.159943 252.478989,170.522125 
	C252.178650,171.589417 252.088104,172.294556 251.997574,172.999680 
	C251.997574,172.999680 251.753036,173.269913 251.572601,173.679062 
	C251.287140,174.722687 251.182129,175.357178 251.077087,175.991653 
	C250.881332,176.385193 250.685577,176.778748 250.255676,177.760803 
	C249.410797,180.236008 248.800034,182.122742 248.189270,184.009476 
	C247.981339,184.398239 247.773376,184.787003 247.281250,185.754547 
	C244.620819,191.191986 242.244568,196.050659 239.868317,200.909348 
	C239.868317,200.909348 239.975967,200.967926 239.653168,201.064316 
	C238.886108,202.104187 238.441864,203.047684 237.997620,203.991180 
	C237.997635,203.991180 237.998779,203.998886 237.737564,204.147034 
	C237.235947,204.823303 236.995544,205.351410 236.755142,205.879517 
	C236.755142,205.879517 236.875992,205.886414 236.604004,205.935242 
	C236.225418,206.324249 236.118820,206.664429 236.012238,207.004593 
	C236.012238,207.004593 235.999069,207.000122 235.705261,207.157684 
	C233.148102,210.423721 230.884750,213.532181 228.621368,216.640625 
	C228.621368,216.640625 228.900848,217.018723 228.491730,216.955902 
	C227.622116,217.555664 227.161591,218.218246 226.701065,218.880829 
	C226.153992,219.343384 225.606918,219.805954 224.649139,220.711792 
	C223.958862,223.109619 223.679291,225.064148 223.399719,227.018677 
	C220.187286,229.864456 216.974854,232.710220 213.280090,235.322388 
	C211.280228,235.117142 209.453522,234.603622 208.296539,235.263824 
	C201.873520,238.928787 195.613235,242.878876 189.297241,246.731354 
	C189.297226,246.731354 189.103317,246.712952 188.670898,246.815964 
	C184.332306,248.559845 180.426147,250.200714 176.519989,251.841583 
	C176.519989,251.841599 176.201920,251.753754 175.850296,251.814026 
	C175.330399,251.833801 175.162125,251.793304 174.993851,251.752823 
z"/>
<path fill="#05090B" opacity="1.000000" stroke="none" 
	d="
M115.144882,27.123260 
	C104.692383,31.462650 93.740379,35.739998 82.431290,40.066063 
	C82.620918,39.068111 82.899025,37.509605 83.758369,37.058613 
	C88.975845,34.320415 94.139832,31.272755 99.688370,29.436323 
	C104.417976,27.870941 109.640770,27.795683 115.144882,27.123260 
z"/>
<path fill="#05090B" opacity="1.000000" stroke="none" 
	d="
M237.920166,77.871506 
	C232.190857,71.454689 226.494598,64.633026 220.652405,57.495026 
	C225.055679,57.147362 228.016312,59.436714 230.016418,63.401779 
	C231.035172,65.421394 232.537872,67.191452 233.647537,69.171967 
	C235.169495,71.888275 236.525879,74.697342 237.920166,77.871506 
z"/>
<path fill="#05090B" opacity="1.000000" stroke="none" 
	d="
M44.037010,208.075836 
	C49.172108,213.358795 53.998230,218.851669 58.933388,224.662933 
	C56.292698,224.856003 53.703014,225.838699 52.466328,221.333313 
	C51.672470,218.441193 47.131226,216.745346 44.869743,214.016098 
	C43.776394,212.696594 44.065094,210.231918 44.037010,208.075836 
z"/>
<path fill="#05090B" opacity="1.000000" stroke="none" 
	d="
M189.738510,246.807770 
	C195.613235,242.878876 201.873520,238.928787 208.296539,235.263824 
	C209.453522,234.603622 211.280228,235.117142 212.960190,235.376160 
	C208.413773,238.280380 203.774109,241.034149 198.969589,243.461639 
	C196.176315,244.872971 193.118546,245.760803 189.738510,246.807770 
z"/>
<path fill="#05090B" opacity="1.000000" stroke="none" 
	d="
M254.904205,121.049484 
	C252.589157,113.944725 250.326218,106.346649 248.077896,98.371521 
	C254.642883,102.007309 253.897964,108.969215 254.943954,115.166306 
	C255.238907,116.913834 254.967789,118.756912 254.904205,121.049484 
z"/>
<path fill="#05090B" opacity="1.000000" stroke="none" 
	d="
M240.235962,200.902252 
	C242.244568,196.050659 244.620819,191.191986 247.207733,186.077332 
	C249.633240,191.042572 246.443604,198.097855 240.235962,200.902252 
z"/>
<path fill="#05090B" opacity="1.000000" stroke="none" 
	d="
M71.204735,235.697266 
	C75.738029,238.014771 80.188026,240.724594 84.817841,243.721680 
	C83.137733,243.651611 81.212616,243.489212 79.432373,242.893707 
	C76.360878,241.866302 73.379456,240.569626 70.019676,239.252426 
	C70.127487,238.942917 70.624466,237.516251 71.204735,235.697266 
z"/>
<path fill="#05090B" opacity="1.000000" stroke="none" 
	d="
M91.040909,247.338470 
	C97.182060,249.077866 103.363800,251.186218 109.798164,253.550507 
	C109.460228,254.271042 108.724327,255.243240 108.301468,255.122162 
	C103.815178,253.837570 99.321709,252.530167 94.960030,250.884903 
	C93.478462,250.326050 92.363808,248.794495 91.040909,247.338470 
z"/>
<path fill="#05090B" opacity="1.000000" stroke="none" 
	d="
M29.099443,177.854172 
	C31.453276,182.732361 33.733494,187.998535 36.028999,193.631271 
	C31.147209,189.885239 28.572405,184.738159 29.099443,177.854172 
z"/>
<path fill="#05090B" opacity="1.000000" stroke="none" 
	d="
M192.969406,38.083237 
	C192.868744,37.944275 192.768066,37.805313 192.574310,37.426338 
	C195.253342,36.716766 198.025452,36.247208 200.898788,35.388824 
	C201.000000,35.000000 200.999390,35.000916 200.999390,35.000916 
	C202.249420,35.363754 203.499451,35.726593 205.396835,36.277336 
	C203.122131,38.011105 201.649948,39.133190 200.051605,40.670029 
	C199.925461,41.084782 199.759445,41.244408 199.469009,41.187759 
	C198.795593,41.055241 198.412628,40.979366 198.029648,40.903492 
	C197.611908,40.590595 197.194168,40.277699 196.344681,39.657738 
	C195.341049,39.132576 194.769165,38.914486 194.197281,38.696396 
	C194.197281,38.696396 194.122360,38.858612 194.052795,38.569405 
	C193.645294,38.214542 193.307358,38.148888 192.969406,38.083237 
z"/>
<path fill="#05090B" opacity="1.000000" stroke="none" 
	d="
M217.829941,54.219860 
	C214.465164,52.107483 211.143372,49.598804 207.391434,46.734734 
	C206.591690,45.979630 206.222061,45.579914 205.924164,45.100937 
	C205.995895,45.021675 206.143570,44.867104 206.143570,44.867104 
	C211.484268,45.978676 215.652435,48.625767 217.829941,54.219860 
z"/>
<path fill="#05090B" opacity="1.000000" stroke="none" 
	d="
M228.997284,216.715927 
	C230.884750,213.532181 233.148102,210.423721 235.709290,207.164032 
	C235.602570,211.498001 234.675766,215.628922 228.997284,216.715927 
z"/>
<path fill="#05090B" opacity="1.000000" stroke="none" 
	d="
M176.959198,31.296032 
	C176.807938,31.202398 176.656693,31.108767 176.020935,30.777393 
	C174.752380,30.199240 173.968307,29.858826 173.184235,29.518414 
	C177.420685,28.081694 181.518570,27.139860 183.836060,32.874584 
	C182.982712,33.060394 182.144058,32.876373 180.731323,32.424477 
	C179.091232,31.869747 178.025208,31.582890 176.959198,31.296032 
z"/>
<path fill="#05090B" opacity="1.000000" stroke="none" 
	d="
M39.745689,81.068398 
	C37.986889,85.382599 35.862785,89.721390 33.457184,94.290863 
	C35.243923,90.045349 37.312157,85.569168 39.745689,81.068398 
z"/>
<path fill="#05090B" opacity="1.000000" stroke="none" 
	d="
M176.971054,251.890625 
	C180.426147,250.200714 184.332306,248.559845 188.615005,246.895721 
	C186.201416,250.996231 182.170395,252.286758 176.971054,251.890625 
z"/>
<path fill="#05090B" opacity="1.000000" stroke="none" 
	d="
M25.660614,117.237595 
	C25.401819,120.769943 24.870525,124.533150 24.164837,128.647095 
	C22.084461,124.867157 22.535931,121.022285 25.660614,117.237595 
z"/>
<path fill="#05090B" opacity="1.000000" stroke="none" 
	d="
M160.252960,256.247009 
	C163.734375,255.016296 167.470169,254.032318 171.599701,253.080048 
	C170.289948,254.073837 168.685394,255.382339 166.856293,255.904907 
	C164.847839,256.478729 162.632523,256.328522 160.252960,256.247009 
z"/>
<path fill="#05090B" opacity="1.000000" stroke="none" 
	d="
M68.461319,48.949905 
	C66.529984,51.000633 64.213104,53.053997 61.574562,55.205288 
	C60.337528,49.759495 64.763588,49.954365 68.461319,48.949905 
z"/>
<path fill="#05090B" opacity="1.000000" stroke="none" 
	d="
M244.015320,88.565887 
	C242.357422,86.229019 240.709213,83.468323 239.015823,80.360031 
	C243.700729,80.828979 244.425735,84.135582 244.015320,88.565887 
z"/>
<path fill="#171814" opacity="1.000000" stroke="none" 
	d="
M253.964691,96.363228 
	C253.468246,94.969185 253.053467,93.921867 252.638687,92.874550 
	C252.994583,92.734024 253.350464,92.593491 253.706345,92.452965 
	C255.298065,96.529366 256.889801,100.605759 258.481506,104.682152 
	C258.022705,104.863480 257.563904,105.044807 257.105103,105.226128 
	C256.085510,102.387405 255.065933,99.548676 253.964691,96.363228 
z"/>
<path fill="#05090B" opacity="1.000000" stroke="none" 
	d="
M81.708008,40.055397 
	C79.662216,41.738823 77.206451,43.390675 74.406418,45.100403 
	C75.229187,41.692371 77.309654,39.513714 81.708008,40.055397 
z"/>
<path fill="#191817" opacity="1.000000" stroke="none" 
	d="
M18.977470,164.022079 
	C18.095560,159.121750 17.213648,154.221436 16.331736,149.321106 
	C16.794188,149.249451 17.256638,149.177780 17.719090,149.106125 
	C18.151796,153.771088 18.584503,158.436050 19.007240,163.551880 
	C18.997267,164.002747 18.977472,164.022079 18.977470,164.022079 
z"/>
<path fill="#05090B" opacity="1.000000" stroke="none" 
	d="
M256.464050,135.647491 
	C255.755783,131.935104 255.287415,127.903954 254.889740,123.434036 
	C255.541626,127.106422 256.122803,131.217560 256.464050,135.647491 
z"/>
<path fill="#05090B" opacity="1.000000" stroke="none" 
	d="
M54.894032,61.186966 
	C53.410320,63.462814 51.561356,65.709335 49.411682,68.113525 
	C48.822128,64.304581 51.424797,62.540203 54.894032,61.186966 
z"/>
<path fill="#05090B" opacity="1.000000" stroke="none" 
	d="
M63.141609,229.161865 
	C65.506554,230.614090 67.859985,232.428879 70.367126,234.557526 
	C68.057266,233.089050 65.593681,231.306732 63.141609,229.161865 
z"/>
<path fill="#10100B" opacity="1.000000" stroke="none" 
	d="
M184.252747,25.646624 
	C185.717880,26.348810 186.860550,26.889057 188.003220,27.429304 
	C187.853546,27.792103 187.703873,28.154900 187.554199,28.517698 
	C184.626450,27.346680 181.698715,26.175661 178.770981,25.004642 
	C178.881302,24.647665 178.991608,24.290686 179.101929,23.933708 
	C180.711380,24.450699 182.320847,24.967691 184.252747,25.646624 
z"/>
<path fill="#05090B" opacity="1.000000" stroke="none" 
	d="
M23.802174,154.151077 
	C24.389210,155.732071 24.723042,157.481186 24.990482,159.617081 
	C21.897734,158.730179 20.661501,157.023453 23.802174,154.151077 
z"/>
<path fill="#05090B" opacity="1.000000" stroke="none" 
	d="
M29.753433,102.132507 
	C29.324715,105.046776 28.517721,108.012245 27.439125,111.262009 
	C27.903402,108.425430 28.639280,105.304565 29.753433,102.132507 
z"/>
<path fill="#05090B" opacity="1.000000" stroke="none" 
	d="
M248.521149,183.937683 
	C248.800034,182.122742 249.410797,180.236008 250.219269,178.089737 
	C253.813263,180.857208 249.940857,182.000778 248.521149,183.937683 
z"/>
<path fill="#05090B" opacity="1.000000" stroke="none" 
	d="
M250.996735,88.001221 
	C246.875641,88.099075 248.297638,84.965912 247.994995,82.420319 
	C248.000824,81.999199 248.012909,81.986877 248.012909,81.986877 
	C248.984833,83.759705 249.956772,85.532524 250.964355,87.652710 
	C251.000000,88.000076 250.996735,88.001221 250.996735,88.001221 
z"/>
<path fill="#05090B" opacity="1.000000" stroke="none" 
	d="
M59.892456,56.184834 
	C59.134026,57.511299 57.975864,58.770279 56.514576,60.142399 
	C55.817871,57.696796 56.503304,55.993629 59.892456,56.184834 
z"/>
<path fill="#05090B" opacity="1.000000" stroke="none" 
	d="
M253.227829,169.921509 
	C253.211334,167.908188 253.567825,165.826416 254.108246,163.396439 
	C254.061707,165.316513 253.831268,167.584778 253.227829,169.921509 
z"/>
<path fill="#1F1E19" opacity="1.000000" stroke="none" 
	d="
M255.575836,185.212296 
	C255.360184,183.601364 255.360184,181.737854 255.360184,179.874359 
	C255.964951,179.924927 256.569733,179.975494 257.174500,180.026062 
	C256.713501,181.670609 256.252502,183.315170 255.575836,185.212296 
z"/>
<path fill="#05090B" opacity="1.000000" stroke="none" 
	d="
M223.746521,226.892944 
	C223.679291,225.064148 223.958862,223.109619 224.575485,220.974915 
	C224.639465,222.785553 224.366409,224.776367 223.746521,226.892944 
z"/>
<path fill="#05090B" opacity="1.000000" stroke="none" 
	d="
M162.964691,26.677176 
	C161.793060,26.938578 160.630051,26.835201 159.185913,26.515368 
	C159.739365,25.593912 160.573944,24.888916 161.408524,24.183918 
	C161.930115,24.893410 162.451706,25.602903 162.964691,26.677176 
z"/>
<path fill="#05090B" opacity="1.000000" stroke="none" 
	d="
M247.926392,96.867462 
	C246.942642,95.414551 245.994293,93.559898 245.023529,91.352997 
	C245.988022,92.822403 246.974915,94.644066 247.926392,96.867462 
z"/>
<path fill="#05090B" opacity="1.000000" stroke="none" 
	d="
M150.880173,25.007679 
	C149.572510,25.283691 148.117523,25.278233 146.342072,25.101273 
	C147.592026,24.861917 149.162430,24.794062 150.880173,25.007679 
z"/>
<path fill="#05090B" opacity="1.000000" stroke="none" 
	d="
M40.139587,201.841248 
	C41.114433,202.710999 42.032780,204.009018 43.000107,205.643661 
	C40.232208,206.204651 39.824387,204.503464 40.139587,201.841248 
z"/>
<path fill="#171814" opacity="1.000000" stroke="none" 
	d="
M258.634888,111.284317 
	C258.411560,110.277344 258.314758,109.560280 258.217957,108.843216 
	C258.576355,108.779076 258.934753,108.714935 259.293182,108.650795 
	C259.575134,110.048431 259.857086,111.446068 260.139038,112.843704 
	C259.893372,112.917702 259.647675,112.991707 259.401978,113.065704 
	C259.188446,112.568550 258.974945,112.071388 258.634888,111.284317 
z"/>
<path fill="#191918" opacity="1.000000" stroke="none" 
	d="
M23.017450,102.011429 
	C22.668228,104.041176 22.319006,106.070915 21.969784,108.100662 
	C21.596184,108.013115 21.222584,107.925560 20.848984,107.838013 
	C21.382963,106.040123 21.916943,104.242241 22.724983,102.221649 
	C22.999043,101.998940 23.017450,102.011429 23.017450,102.011429 
z"/>
<path fill="#191918" opacity="1.000000" stroke="none" 
	d="
M19.006165,118.003838 
	C19.005138,120.040466 19.004114,122.077103 18.667465,124.553299 
	C17.893538,124.987221 17.455231,124.981567 17.016926,124.975914 
	C17.497719,122.818092 17.978514,120.660278 18.729572,118.251160 
	C18.999834,117.999863 19.006165,118.003838 19.006165,118.003838 
z"/>
<path fill="#05090B" opacity="1.000000" stroke="none" 
	d="
M17.833038,145.658508 
	C17.202784,145.617249 16.650524,145.261887 16.098267,144.906540 
	C16.472696,144.485184 16.847128,144.063828 17.221560,143.642471 
	C17.451385,144.209793 17.681211,144.777115 17.833038,145.658508 
z"/>
<path fill="#05090B" opacity="1.000000" stroke="none" 
	d="
M256.228821,150.745285 
	C255.968185,148.635330 255.990295,146.264053 256.156128,143.471710 
	C256.370392,145.528412 256.440979,148.006195 256.228821,150.745285 
z"/>
<path fill="#05090B" opacity="1.000000" stroke="none" 
	d="
M130.332458,18.667019 
	C131.957397,18.261942 133.808578,18.082985 135.659760,17.904028 
	C135.692459,18.233730 135.725143,18.563435 135.757843,18.893137 
	C134.024796,18.893137 132.291733,18.893137 130.332458,18.667019 
z"/>
<path fill="#05090B" opacity="1.000000" stroke="none" 
	d="
M123.617111,19.132565 
	C123.152275,19.616190 122.380447,20.024607 121.608620,20.433023 
	C121.419205,19.974466 121.229790,19.515911 121.040367,19.057354 
	C121.796951,19.057354 122.553528,19.057354 123.617111,19.132565 
z"/>
<path fill="#05090B" opacity="1.000000" stroke="none" 
	d="
M132.789902,24.718590 
	C131.865036,25.144306 130.742966,25.331982 129.294922,25.390543 
	C130.176865,25.001137 131.384781,24.740845 132.789902,24.718590 
z"/>
<path fill="#7FBECE" opacity="1.000000" stroke="none" 
	d="
M190.991928,37.077267 
	C189.680984,36.638306 188.370026,36.199341 186.995117,35.452652 
	C187.270691,35.153976 187.610229,35.163025 188.390503,35.419376 
	C189.218781,35.756214 189.606293,35.845753 189.993820,35.935287 
	C189.993820,35.935287 190.202148,36.179832 190.469360,36.405781 
	C190.821701,36.780239 190.906815,36.928753 190.991928,37.077267 
z"/>
<path fill="#7FBECE" opacity="1.000000" stroke="none" 
	d="
M172.889557,29.513126 
	C173.968307,29.858826 174.752380,30.199240 175.754120,30.775087 
	C174.362335,30.699434 172.752884,30.388350 171.004395,29.751606 
	C171.441879,29.453247 172.018387,29.480543 172.889557,29.513126 
z"/>
<path fill="#10100B" opacity="1.000000" stroke="none" 
	d="
M191.005951,28.992285 
	C191.868927,29.548975 192.731918,30.105663 193.594894,30.662350 
	C193.206253,31.041185 192.817627,31.420023 192.428986,31.798862 
	C191.955536,31.102764 191.482101,30.406668 191.004333,29.355303 
	C191.000000,29.000034 191.005951,28.992283 191.005951,28.992285 
z"/>
<path fill="#05090B" opacity="1.000000" stroke="none" 
	d="
M27.065289,171.130737 
	C27.682266,172.253647 28.258308,173.778183 28.816971,175.657089 
	C28.207848,174.518417 27.616100,173.025391 27.065289,171.130737 
z"/>
<path fill="#05090B" opacity="1.000000" stroke="none" 
	d="
M205.292572,244.515778 
	C204.963699,245.036209 204.431641,245.347412 203.899582,245.658615 
	C203.779373,245.391754 203.659149,245.124878 203.538940,244.858017 
	C204.055740,244.674194 204.572556,244.490372 205.292572,244.515778 
z"/>
<path fill="#05090B" opacity="1.000000" stroke="none" 
	d="
M60.028381,226.301788 
	C61.007423,226.695953 61.981934,227.475006 63.076260,228.546082 
	C62.138664,228.120956 61.081257,227.403824 60.028381,226.301788 
z"/>
<path fill="#10100B" opacity="1.000000" stroke="none" 
	d="
M197.652374,31.921486 
	C197.249237,32.286152 196.619461,32.506413 195.989700,32.726669 
	C195.901489,32.346668 195.813278,31.966665 195.725067,31.586664 
	C196.291962,31.650137 196.858841,31.713608 197.652374,31.921486 
z"/>
<path fill="#05090B" opacity="1.000000" stroke="none" 
	d="
M204.961014,45.251640 
	C204.306107,44.728153 203.651199,44.204659 202.844742,43.404179 
	C203.757553,43.481911 204.821945,43.836628 206.014954,44.529224 
	C206.143570,44.867104 205.995895,45.021675 205.700607,45.110130 
	C205.405319,45.198589 204.961014,45.251640 204.961014,45.251640 
z"/>
<path fill="#05090B" opacity="1.000000" stroke="none" 
	d="
M72.583817,45.977489 
	C72.167725,46.639462 71.401482,47.302448 70.326706,48.007133 
	C70.756676,47.358723 71.495171,46.668613 72.583817,45.977489 
z"/>
<path fill="#1F1E19" opacity="1.000000" stroke="none" 
	d="
M260.647308,166.836349 
	C260.335083,166.011658 260.223633,165.001877 260.112183,163.992111 
	C260.357452,163.990311 260.602753,163.988525 260.848053,163.986740 
	C260.848053,164.874924 260.848053,165.763092 260.647308,166.836349 
z"/>
<path fill="#191817" opacity="1.000000" stroke="none" 
	d="
M19.008286,163.995209 
	C19.393303,165.243927 19.767300,166.500183 20.141296,167.756424 
	C19.830194,167.822159 19.519093,167.887894 19.207991,167.953629 
	C19.132051,166.884338 19.056112,165.815048 18.978823,164.383911 
	C18.977472,164.022079 18.997267,164.002747 19.008286,163.995209 
z"/>
<path fill="#05090B" opacity="1.000000" stroke="none" 
	d="
M238.347610,203.932556 
	C238.441864,203.047684 238.886108,202.104187 239.614700,201.016602 
	C239.498566,201.872986 239.098083,202.873444 238.347610,203.932556 
z"/>
<path fill="#1F1E19" opacity="1.000000" stroke="none" 
	d="
M258.983795,172.988586 
	C258.983795,172.043503 258.983795,171.098419 258.983795,170.153336 
	C259.247955,170.169250 259.512085,170.185165 259.776245,170.201096 
	C259.685364,171.000275 259.594452,171.799454 259.251953,172.799561 
	C259.000305,173.000473 258.983795,172.988586 258.983795,172.988586 
z"/>
<path fill="#7FBECE" opacity="1.000000" stroke="none" 
	d="
M169.006210,29.004469 
	C169.014313,29.185495 169.022400,29.366524 169.017090,29.819944 
	C168.366257,29.744913 167.728836,29.397491 167.286377,28.651070 
	C167.656586,28.178602 167.831833,28.105131 168.007095,28.031662 
	C168.007095,28.031662 168.283569,28.253996 168.556854,28.411264 
	C168.830154,28.568533 169.006210,29.004469 169.006210,29.004469 
z"/>
<path fill="#7FBECE" opacity="1.000000" stroke="none" 
	d="
M164.989441,28.084684 
	C164.325439,28.089151 163.661423,28.093618 162.917953,27.857134 
	C163.197021,27.527006 163.555542,27.437828 164.325348,27.489399 
	C164.820877,27.781660 164.905167,27.933172 164.989441,28.084684 
z"/>
<path fill="#05090B" opacity="1.000000" stroke="none" 
	d="
M227.069412,218.865936 
	C227.161591,218.218246 227.622116,217.555664 228.360977,216.760986 
	C228.238800,217.369629 227.838287,218.110336 227.069412,218.865936 
z"/>
<path fill="#05090B" opacity="1.000000" stroke="none" 
	d="
M23.664021,131.223358 
	C23.910305,132.072754 23.926914,133.136856 23.806265,134.578171 
	C23.590786,133.782944 23.512564,132.610504 23.664021,131.223358 
z"/>
<path fill="#05090B" opacity="1.000000" stroke="none" 
	d="
M17.053267,125.270493 
	C17.455231,124.981567 17.893538,124.987221 18.660553,124.989632 
	C18.756483,125.494255 18.523701,126.002113 18.290916,126.509979 
	C17.890480,126.195007 17.490044,125.880043 17.053267,125.270493 
z"/>
<path fill="#191918" opacity="1.000000" stroke="none" 
	d="
M18.996616,117.996727 
	C19.148350,116.817329 19.303297,115.641060 19.729115,114.232399 
	C19.999983,114.000000 20.002407,114.001534 20.002407,114.001534 
	C19.851896,115.181061 19.701387,116.360596 19.278522,117.771980 
	C19.006165,118.003838 18.999834,117.999863 18.996616,117.996727 
z"/>
<path fill="#05090B" opacity="1.000000" stroke="none" 
	d="
M171.641022,259.558472 
	C172.063934,259.667786 172.322662,259.934113 172.561020,260.217590 
	C172.567413,260.225220 172.353195,260.418274 172.241867,260.524872 
	C171.985931,260.255859 171.730011,259.986847 171.641022,259.558472 
z"/>
<path fill="#05090B" opacity="1.000000" stroke="none" 
	d="
M146.044617,263.432922 
	C146.269791,263.803558 146.267471,264.171814 146.238571,264.537964 
	C146.237762,264.548187 145.952438,264.535950 145.799805,264.534180 
	C145.804337,264.166229 145.808868,263.798248 146.044617,263.432922 
z"/>
<path fill="#191918" opacity="1.000000" stroke="none" 
	d="
M22.990940,101.990944 
	C23.028879,101.339157 23.074919,100.695358 23.120958,100.051567 
	C23.279364,100.055779 23.437767,100.059990 23.596170,100.064201 
	C23.557114,100.598763 23.518057,101.133324 23.248226,101.839661 
	C23.017450,102.011429 22.999043,101.998940 22.990940,101.990944 
z"/>
<path fill="#05090B" opacity="1.000000" stroke="none" 
	d="
M249.305786,197.806030 
	C248.957672,197.954849 248.654663,197.907852 248.351654,197.860840 
	C248.684738,197.777283 249.017822,197.693741 249.305786,197.806030 
z"/>
<path fill="#05090B" opacity="1.000000" stroke="none" 
	d="
M165.334152,28.063587 
	C164.905167,27.933172 164.820877,27.781660 164.598602,27.409237 
	C165.469666,27.280632 166.478729,27.372936 167.747437,27.748451 
	C167.831833,28.105131 167.656586,28.178602 167.225189,28.377230 
	C166.538986,28.349089 166.108917,28.195789 165.334152,28.063587 
z"/>
<path fill="#10100B" opacity="1.000000" stroke="none" 
	d="
M174.942032,23.632599 
	C175.241211,23.427464 175.662323,23.396370 176.083420,23.365278 
	C175.743591,23.512400 175.403778,23.659519 174.942032,23.632599 
z"/>
<path fill="#1F1E19" opacity="1.000000" stroke="none" 
	d="
M253.369507,187.905838 
	C253.632477,188.165268 253.739059,188.551361 253.790253,188.944656 
	C253.799286,189.014038 253.576889,189.113571 253.461365,189.199173 
	C253.372330,188.811096 253.283295,188.423019 253.369507,187.905838 
z"/>
<path fill="#05090B" opacity="1.000000" stroke="none" 
	d="
M21.859646,173.295868 
	C21.730318,173.703140 21.561344,173.901672 21.392368,174.100189 
	C21.312765,173.810150 21.233166,173.520126 21.153566,173.230087 
	C21.375711,173.182434 21.597855,173.134781 21.859646,173.295868 
z"/>
<path fill="#05090B" opacity="1.000000" stroke="none" 
	d="
M157.310913,19.870270 
	C157.141815,19.608105 157.182449,19.382277 157.223083,19.156448 
	C157.515915,19.231537 157.808746,19.306627 158.101578,19.381718 
	C157.907944,19.556681 157.714294,19.731644 157.310913,19.870270 
z"/>
<path fill="#05090B" opacity="1.000000" stroke="none" 
	d="
M122.295135,256.443726 
	C122.964256,256.288788 123.911530,256.367310 125.158997,256.652100 
	C124.497215,256.797943 123.535255,256.737579 122.295135,256.443726 
z"/>
<path fill="#05090B" opacity="1.000000" stroke="none" 
	d="
M23.504192,148.249588 
	C23.811924,148.774338 23.927069,149.512482 23.963373,150.620178 
	C23.693558,150.147476 23.502581,149.305237 23.504192,148.249588 
z"/>
<path fill="#05090B" opacity="1.000000" stroke="none" 
	d="
M176.309448,258.805542 
	C175.958939,258.955322 175.653961,258.908051 175.348984,258.860779 
	C175.684311,258.776703 176.019653,258.692596 176.309448,258.805542 
z"/>
<path fill="#05090B" opacity="1.000000" stroke="none" 
	d="
M17.479900,137.506149 
	C17.108505,137.527924 16.883804,137.406052 16.659100,137.284180 
	C16.865664,137.082642 17.072229,136.881119 17.278801,136.679596 
	C17.394733,136.907227 17.510664,137.134857 17.479900,137.506149 
z"/>
<path fill="#05090B" opacity="1.000000" stroke="none" 
	d="
M262.862701,135.293915 
	C262.732330,135.703278 262.561493,135.902725 262.390656,136.102158 
	C262.310211,135.810654 262.229736,135.519150 262.149292,135.227661 
	C262.373627,135.179764 262.597931,135.131866 262.862701,135.293915 
z"/>
<path fill="#191918" opacity="1.000000" stroke="none" 
	d="
M19.998531,113.998566 
	C20.028549,113.355659 20.060019,112.714195 20.091490,112.072731 
	C20.254446,112.075905 20.417404,112.079079 20.580360,112.082260 
	C20.540117,112.606979 20.499874,113.131706 20.231020,113.828979 
	C20.002407,114.001534 19.999983,114.000000 19.998531,113.998566 
z"/>
<path fill="#05090B" opacity="1.000000" stroke="none" 
	d="
M110.858398,261.121765 
	C110.966827,260.821167 111.219421,260.662476 111.472023,260.503784 
	C111.315536,260.757080 111.159050,261.010406 110.858398,261.121765 
z"/>
<path fill="#05090B" opacity="1.000000" stroke="none" 
	d="
M30.716827,100.195976 
	C30.835707,100.590851 30.716496,101.178314 30.351959,101.948822 
	C30.230667,101.550758 30.354700,100.969666 30.716827,100.195976 
z"/>
<path fill="#05090B" opacity="1.000000" stroke="none" 
	d="
M252.263641,172.750961 
	C252.088104,172.294556 252.178650,171.589417 252.529419,170.629700 
	C252.703003,171.084167 252.616348,171.793198 252.263641,172.750961 
z"/>
<path fill="#05090B" opacity="1.000000" stroke="none" 
	d="
M42.969994,76.241928 
	C43.028873,76.675102 42.794033,77.212868 42.287201,77.880508 
	C42.235569,77.455757 42.455925,76.901138 42.969994,76.241928 
z"/>
<path fill="#1F1E19" opacity="1.000000" stroke="none" 
	d="
M259.007477,173.007812 
	C258.881989,173.432495 258.749329,173.849854 258.616638,174.267197 
	C258.601166,173.916397 258.585724,173.565582 258.777039,173.101685 
	C258.983795,172.988586 259.000305,173.000473 259.007477,173.007812 
z"/>
<path fill="#05090B" opacity="1.000000" stroke="none" 
	d="
M251.322952,175.768097 
	C251.182129,175.357178 251.287140,174.722687 251.624359,173.853790 
	C251.760651,174.261093 251.664734,174.902817 251.322952,175.768097 
z"/>
<path fill="#1F1E19" opacity="1.000000" stroke="none" 
	d="
M257.238770,177.013519 
	C257.416077,176.895874 257.593964,176.952545 257.771881,177.009216 
	C257.594391,177.068771 257.416901,177.128311 257.238770,177.013519 
z"/>
<path fill="#05090B" opacity="1.000000" stroke="none" 
	d="
M113.755997,20.592026 
	C113.873520,20.445105 114.072403,20.425228 114.271278,20.405352 
	C114.126633,20.509924 113.981995,20.614498 113.755997,20.592026 
z"/>
<path fill="#05090B" opacity="1.000000" stroke="none" 
	d="
M169.342255,28.995445 
	C169.006210,29.004469 168.830154,28.568533 168.725967,28.357668 
	C169.270493,28.251331 169.919220,28.355862 170.788391,28.715080 
	C170.565323,28.975319 170.121796,28.980869 169.342255,28.995445 
z"/>
<path fill="#05090B" opacity="1.000000" stroke="none" 
	d="
M31.814892,97.238289 
	C31.955626,97.686523 31.818274,98.342834 31.420439,99.218185 
	C31.285572,98.773605 31.411190,98.109978 31.814892,97.238289 
z"/>
<path fill="#05090B" opacity="1.000000" stroke="none" 
	d="
M37.041950,196.255371 
	C37.395164,196.407623 37.749733,196.871887 38.120026,197.640823 
	C37.771603,197.486130 37.407452,197.026749 37.041950,196.255371 
z"/>
<path fill="#171814" opacity="1.000000" stroke="none" 
	d="
M251.000610,87.998619 
	C251.239502,88.335144 251.477783,88.673126 251.716064,89.011108 
	C251.597397,89.093239 251.478699,89.175377 251.360016,89.257515 
	C251.248230,88.992622 251.136444,88.727722 251.010696,88.232025 
	C250.996735,88.001221 251.000000,88.000076 251.000610,87.998619 
z"/>
<path fill="#05090B" opacity="1.000000" stroke="none" 
	d="
M38.087605,198.203522 
	C38.471321,198.344116 38.852585,198.810974 39.254829,199.591217 
	C38.878925,199.446335 38.482040,198.988068 38.087605,198.203522 
z"/>
<path fill="#05090B" opacity="1.000000" stroke="none" 
	d="
M236.367737,65.226761 
	C236.331955,65.193237 236.403488,65.260277 236.367737,65.226761 
z"/>
<path fill="#05090B" opacity="1.000000" stroke="none" 
	d="
M237.045776,205.770401 
	C236.995544,205.351410 237.235947,204.823303 237.734344,204.148102 
	C237.773697,204.554443 237.555038,205.107864 237.045776,205.770401 
z"/>
<path fill="#05090B" opacity="1.000000" stroke="none" 
	d="
M234.630768,62.773796 
	C234.666443,62.807278 234.595093,62.740314 234.630768,62.773796 
z"/>
<path fill="#05090B" opacity="1.000000" stroke="none" 
	d="
M117.803757,26.640297 
	C117.548454,26.998812 117.114517,27.159544 116.334412,27.248402 
	C116.533875,26.931856 117.079506,26.687185 117.803757,26.640297 
z"/>
<path fill="#05090B" opacity="1.000000" stroke="none" 
	d="
M123.811256,25.648611 
	C123.546906,26.003344 123.110481,26.157547 122.332863,26.217674 
	C122.540840,25.898428 123.090012,25.673254 123.811256,25.648611 
z"/>
<path fill="#05090B" opacity="1.000000" stroke="none" 
	d="
M234.230164,220.631607 
	C233.991257,220.681061 233.854156,220.621277 233.717072,220.561493 
	C233.922043,220.548447 234.127014,220.535400 234.230164,220.631607 
z"/>
<path fill="#05090B" opacity="1.000000" stroke="none" 
	d="
M44.014099,218.981506 
	C44.422874,219.108841 44.831650,219.236176 45.240429,219.363495 
	C44.905010,219.375244 44.569588,219.387009 44.117031,219.199249 
	C43.999893,218.999710 44.014099,218.981506 44.014099,218.981506 
z"/>
<path fill="#05090B" opacity="1.000000" stroke="none" 
	d="
M241.010834,211.008347 
	C240.887405,211.417221 240.763992,211.826096 240.640579,212.234970 
	C240.629059,211.902466 240.617523,211.569962 240.803009,211.118729 
	C241.000000,211.000000 241.010834,211.008347 241.010834,211.008347 
z"/>
<path fill="#05090B" opacity="1.000000" stroke="none" 
	d="
M174.699203,251.902969 
	C175.162125,251.793304 175.330399,251.833801 175.748749,251.944031 
	C175.358536,252.301483 174.718277,252.589172 173.709869,252.820801 
	C173.695999,252.527542 174.050278,252.290329 174.699203,251.902969 
z"/>
<path fill="#05090B" opacity="1.000000" stroke="none" 
	d="
M255.234558,158.866333 
	C254.995087,158.546753 254.969360,158.095276 255.104126,157.338531 
	C255.325867,157.600327 255.387100,158.167358 255.234558,158.866333 
z"/>
<path fill="#10100B" opacity="1.000000" stroke="none" 
	d="
M201.000336,34.999722 
	C200.759491,34.667301 200.518311,34.335159 200.277130,34.003014 
	C200.394699,33.921688 200.512299,33.840359 200.629883,33.759026 
	C200.743240,34.020264 200.856598,34.281502 200.984665,34.771828 
	C200.999390,35.000916 201.000000,35.000000 201.000336,34.999722 
z"/>
<path fill="#05090B" opacity="1.000000" stroke="none" 
	d="
M103.753090,258.591125 
	C103.809181,258.401611 103.945633,258.337585 104.082085,258.273560 
	C103.999207,258.421234 103.916328,258.568909 103.753090,258.591125 
z"/>
<path fill="#05090B" opacity="1.000000" stroke="none" 
	d="
M81.750076,32.593102 
	C81.867935,32.445148 82.067780,32.424847 82.267624,32.404545 
	C82.122437,32.509949 81.977249,32.615353 81.750076,32.593102 
z"/>
<path fill="#05090B" opacity="1.000000" stroke="none" 
	d="
M107.260612,260.010132 
	C107.389046,259.839264 107.518921,259.818604 107.648788,259.797943 
	C107.519882,259.918762 107.390961,260.039551 107.260612,260.010132 
z"/>
<path fill="#05090B" opacity="1.000000" stroke="none" 
	d="
M155.664886,256.811401 
	C155.963669,256.515564 156.620209,256.290802 157.631165,256.127441 
	C157.331253,256.420105 156.676941,256.651306 155.664886,256.811401 
z"/>
<path fill="#05090B" opacity="1.000000" stroke="none" 
	d="
M26.647236,113.262428 
	C26.818447,113.694221 26.749670,114.379280 26.431765,115.312759 
	C26.257507,114.879349 26.332378,114.197525 26.647236,113.262428 
z"/>
<path fill="#05090B" opacity="1.000000" stroke="none" 
	d="
M247.994293,82.003792 
	C247.750595,81.672325 247.511566,81.337433 247.291290,80.990623 
	C247.287491,80.984627 247.509964,80.834908 247.626846,80.752258 
	C247.743851,81.011559 247.860840,81.270859 247.995361,81.758514 
	C248.012909,81.986877 248.000824,81.999199 247.994293,82.003792 
z"/>
<path fill="#05090B" opacity="1.000000" stroke="none" 
	d="
M244.990417,90.700165 
	C244.669952,90.528458 244.340073,90.059082 244.009491,89.293320 
	C244.332870,89.465462 244.656952,89.933983 244.990417,90.700165 
z"/>
<path fill="#05090B" opacity="1.000000" stroke="none" 
	d="
M61.036880,55.288315 
	C61.133816,55.541840 60.948059,55.853497 60.491608,56.240280 
	C60.398674,55.992413 60.576431,55.669430 61.036880,55.288315 
z"/>
<path fill="#05090B" opacity="1.000000" stroke="none" 
	d="
M49.475639,225.459961 
	C49.521652,225.434464 49.429623,225.485443 49.475639,225.459961 
z"/>
<path fill="#05090B" opacity="1.000000" stroke="none" 
	d="
M179.538330,257.475342 
	C179.563782,257.521118 179.512878,257.429565 179.538330,257.475342 
z"/>
<path fill="#05090B" opacity="1.000000" stroke="none" 
	d="
M235.458099,218.526672 
	C235.431213,218.478882 235.484970,218.574463 235.458099,218.526672 
z"/>
<path fill="#05090B" opacity="1.000000" stroke="none" 
	d="
M43.990883,219.006866 
	C43.873631,218.876144 43.765388,218.738281 43.657150,218.600418 
	C43.738132,218.644196 43.819115,218.687958 43.957100,218.856628 
	C44.014099,218.981506 43.999893,218.999710 43.990883,219.006866 
z"/>
<path fill="#05090B" opacity="1.000000" stroke="none" 
	d="
M149.112915,257.354736 
	C149.172134,257.164886 149.332809,257.106293 149.743256,257.106262 
	C149.993027,257.164795 149.669403,257.522217 149.669403,257.522217 
	C149.669403,257.522217 149.214386,257.486023 149.112915,257.354736 
z"/>
<path fill="#05090B" opacity="1.000000" stroke="none" 
	d="
M51.953289,54.964565 
	C52.077721,54.653610 52.273476,54.397091 52.771606,54.096939 
	C53.002663,53.998878 53.041931,54.031761 53.041931,54.031761 
	C52.922031,54.345005 52.729214,54.603947 52.230865,54.905956 
	C51.998249,55.003330 51.953289,54.964565 51.953289,54.964565 
z"/>
<path fill="#05090B" opacity="1.000000" stroke="none" 
	d="
M167.998596,261.002258 
	C167.887726,260.872162 167.776871,260.742096 167.666016,260.612000 
	C167.743179,260.657379 167.820328,260.702759 167.948746,260.874084 
	C168.000000,261.000000 167.998596,261.002258 167.998596,261.002258 
z"/>
<path fill="#05090B" opacity="1.000000" stroke="none" 
	d="
M51.060207,56.045547 
	C50.939198,56.057217 50.818184,56.068890 50.851284,56.039619 
	C51.005394,55.998680 51.060207,56.045547 51.060207,56.045547 
z"/>
<path fill="#05090B" opacity="1.000000" stroke="none" 
	d="
M52.017647,55.025799 
	C51.909996,55.346657 51.719749,55.597008 51.263252,55.922440 
	C51.060207,56.045547 51.005394,55.998680 50.981125,55.971184 
	C51.090538,55.648281 51.285774,55.401592 51.747929,55.084099 
	C51.953289,54.964565 51.998249,55.003330 52.017647,55.025799 
z"/>
<path fill="#05090B" opacity="1.000000" stroke="none" 
	d="
M165.456253,20.527084 
	C165.428513,20.478413 165.483994,20.575756 165.456253,20.527084 
z"/>
<path fill="#05090B" opacity="1.000000" stroke="none" 
	d="
M130.098053,257.301636 
	C130.172531,257.117126 130.338928,257.071350 130.747787,257.116211 
	C130.990265,257.206818 130.637451,257.531738 130.637451,257.531738 
	C130.637451,257.531738 130.189987,257.440399 130.098053,257.301636 
z"/>
<path fill="#05090B" opacity="1.000000" stroke="none" 
	d="
M212.475479,240.460983 
	C212.520447,240.436264 212.430511,240.485703 212.475479,240.460983 
z"/>
<path fill="#05090B" opacity="1.000000" stroke="none" 
	d="
M56.002296,60.262043 
	C56.089920,60.495888 55.906288,60.802845 55.459267,61.193787 
	C55.374268,60.963562 55.552654,60.649361 56.002296,60.262043 
z"/>
<path fill="#05090B" opacity="1.000000" stroke="none" 
	d="
M89.201813,246.258560 
	C89.410728,246.101028 89.825653,246.185776 90.431221,246.532669 
	C90.217186,246.696823 89.812508,246.598831 89.201813,246.258560 
z"/>
<path fill="#05090B" opacity="1.000000" stroke="none" 
	d="
M117.524422,20.541834 
	C117.477631,20.567982 117.571213,20.515686 117.524422,20.541834 
z"/>
<path fill="#05090B" opacity="1.000000" stroke="none" 
	d="
M116.265762,255.353195 
	C116.432785,255.151276 116.855736,255.151962 117.538391,255.343323 
	C117.372627,255.541260 116.947166,255.548538 116.265762,255.353195 
z"/>
<path fill="#05090B" opacity="1.000000" stroke="none" 
	d="
M168.000916,260.999390 
	C168.112335,261.128571 168.222855,261.258362 168.333374,261.388184 
	C168.256485,261.342865 168.179596,261.297546 168.050659,261.127228 
	C167.998596,261.002258 168.000000,261.000000 168.000916,260.999390 
z"/>
<path fill="#05090B" opacity="1.000000" stroke="none" 
	d="
M112.248077,254.390991 
	C112.424873,254.214615 112.838776,254.236420 113.473907,254.487045 
	C113.291824,254.673645 112.888512,254.631409 112.248077,254.390991 
z"/>
<path fill="#05090B" opacity="1.000000" stroke="none" 
	d="
M199.527374,249.542236 
	C199.477646,249.570724 199.577087,249.513748 199.527374,249.542236 
z"/>
<path fill="#05090B" opacity="1.000000" stroke="none" 
	d="
M189.796707,35.711460 
	C189.606293,35.845753 189.218781,35.756214 188.649567,35.420723 
	C188.845123,35.279053 189.222366,35.383343 189.796707,35.711460 
z"/>
<path fill="#05090B" opacity="1.000000" stroke="none" 
	d="
M54.035332,53.027107 
	C53.915382,53.335896 53.723537,53.590508 53.250870,53.911354 
	C53.041931,54.031761 53.002663,53.998878 52.985687,53.979034 
	C53.096432,53.655209 53.290596,53.402218 53.776367,53.099640 
	C54.001530,52.999058 54.035332,53.027107 54.035332,53.027107 
z"/>
<path fill="#05090B" opacity="1.000000" stroke="none" 
	d="
M26.294132,167.568634 
	C26.533796,167.618484 26.726162,167.985306 26.873455,168.670227 
	C26.634537,168.620743 26.440685,168.253174 26.294132,167.568634 
z"/>
<path fill="#05090B" opacity="1.000000" stroke="none" 
	d="
M25.403667,163.513138 
	C25.657820,163.579712 25.820107,163.966568 25.929504,164.671967 
	C25.688345,164.604813 25.500072,164.219101 25.403667,163.513138 
z"/>
<path fill="#05090B" opacity="1.000000" stroke="none" 
	d="
M53.987381,52.982269 
	C54.076893,52.944622 54.180550,52.923767 54.159767,52.965008 
	C54.035332,53.027107 54.001530,52.999058 53.987381,52.982269 
z"/>
<path fill="#05090B" opacity="1.000000" stroke="none" 
	d="
M58.044209,49.033997 
	C57.932323,49.051125 57.820438,49.068253 57.855576,49.041878 
	C58.002594,48.998371 58.044209,49.033997 58.044209,49.033997 
z"/>
<path fill="#05090B" opacity="1.000000" stroke="none" 
	d="
M184.831390,33.604435 
	C184.659225,33.744381 184.336411,33.694801 183.887711,33.424240 
	C184.101624,33.128532 184.407928,33.199081 184.831390,33.604435 
z"/>
<path fill="#05090B" opacity="1.000000" stroke="none" 
	d="
M186.895447,34.581139 
	C186.728424,34.690403 186.399216,34.611603 185.940399,34.303322 
	C186.157990,34.065544 186.465469,34.171955 186.895447,34.581139 
z"/>
<path fill="#05090B" opacity="1.000000" stroke="none" 
	d="
M30.547876,83.471909 
	C30.578501,83.524574 30.517252,83.419243 30.547876,83.471909 
z"/>
<path fill="#05090B" opacity="1.000000" stroke="none" 
	d="
M41.769348,78.185867 
	C41.903542,78.393936 41.793911,78.774178 41.421280,79.311401 
	C41.280689,79.098267 41.403107,78.728149 41.769348,78.185867 
z"/>
<path fill="#05090B" opacity="1.000000" stroke="none" 
	d="
M191.245331,37.072762 
	C190.906815,36.928753 190.821701,36.780239 190.629822,36.397949 
	C190.892227,36.282047 191.261398,36.399925 191.814453,36.750011 
	C191.831802,37.010899 191.665268,37.039577 191.245331,37.072762 
z"/>
<path fill="#05090B" opacity="1.000000" stroke="none" 
	d="
M16.474892,140.460571 
	C16.521646,140.434372 16.428139,140.486755 16.474892,140.460571 
z"/>
<path fill="#05090B" opacity="1.000000" stroke="none" 
	d="
M67.979385,40.984299 
	C68.077980,40.958759 68.176567,40.933220 68.137619,40.954178 
	C68.000076,41.000679 67.979385,40.984299 67.979385,40.984299 
z"/>
<path fill="#05090B" opacity="1.000000" stroke="none" 
	d="
M68.008331,41.011070 
	C67.922226,41.047855 67.827881,41.074253 67.856461,41.042477 
	C67.979385,40.984299 68.000076,41.000679 68.008331,41.011070 
z"/>
<path fill="#05090B" opacity="1.000000" stroke="none" 
	d="
M57.984619,48.977699 
	C58.075535,48.939526 58.184425,48.922024 58.168762,48.969257 
	C58.044209,49.033997 58.002594,48.998371 57.984619,48.977699 
z"/>
<path fill="#05090B" opacity="1.000000" stroke="none" 
	d="
M200.011108,41.007812 
	C200.377930,41.087223 200.611526,41.296673 200.640869,41.791809 
	C200.312729,42.041592 200.141251,42.058750 199.969757,42.075905 
	C199.969757,42.075905 199.973923,42.004013 199.908707,41.824295 
	C199.843491,41.644573 199.759445,41.244408 199.759445,41.244408 
	C199.759445,41.244408 199.925461,41.084782 200.011108,41.007812 
z"/>
<path fill="#7FBECE" opacity="1.000000" stroke="none" 
	d="
M200.114563,42.303345 
	C200.141251,42.058750 200.312729,42.041592 200.742050,42.006207 
	C200.999878,41.987980 201.158981,42.423794 201.202850,42.651512 
	C200.917603,42.763084 200.588486,42.646935 200.114563,42.303345 
z"/>
<path fill="#05090B" opacity="1.000000" stroke="none" 
	d="
M36.227356,194.682739 
	C36.483444,194.679901 36.756184,195.001968 37.043442,195.649261 
	C36.786648,195.652206 36.515327,195.329926 36.227356,194.682739 
z"/>
<path fill="#05090B" opacity="1.000000" stroke="none" 
	d="
M42.523964,216.537628 
	C42.479225,216.562225 42.568707,216.513031 42.523964,216.537628 
z"/>
<path fill="#05090B" opacity="1.000000" stroke="none" 
	d="
M41.452522,214.530304 
	C41.422283,214.478531 41.482765,214.582077 41.452522,214.530304 
z"/>
<path fill="#05090B" opacity="1.000000" stroke="none" 
	d="
M240.995850,210.994629 
	C241.081055,210.959137 241.170425,210.929016 241.135315,210.953613 
	C241.010834,211.008347 241.000000,211.000000 240.995850,210.994629 
z"/>
<path fill="#05090B" opacity="1.000000" stroke="none" 
	d="
M243.472427,208.457611 
	C243.520493,208.430481 243.424362,208.484726 243.472427,208.457611 
z"/>
<path fill="#05090B" opacity="1.000000" stroke="none" 
	d="
M156.928528,25.856424 
	C156.826569,26.080009 156.650803,26.135393 156.240662,26.044197 
	C156.289093,25.827820 156.571899,25.758022 156.928528,25.856424 
z"/>
<path fill="#05090B" opacity="1.000000" stroke="none" 
	d="
M236.238495,206.867310 
	C236.118820,206.664429 236.225418,206.324249 236.587997,205.876877 
	C236.717575,206.089783 236.591171,206.409912 236.238495,206.867310 
z"/>
<path fill="#7FBECE" opacity="1.000000" stroke="none" 
	d="
M152.767426,25.896658 
	C152.710434,26.127546 152.424896,26.208740 152.081512,26.109531 
	C152.195404,25.868404 152.367126,25.807684 152.767426,25.896658 
z"/>
<path fill="#05090B" opacity="1.000000" stroke="none" 
	d="
M46.735352,71.118927 
	C46.834637,71.316261 46.714237,71.640274 46.338684,72.052048 
	C46.227577,71.841736 46.371624,71.543671 46.735352,71.118927 
z"/>
<path fill="#05090B" opacity="1.000000" stroke="none" 
	d="
M43.472290,64.456146 
	C43.523174,64.426880 43.421406,64.485420 43.472290,64.456146 
z"/>
<path fill="#05090B" opacity="1.000000" stroke="none" 
	d="
M26.525990,188.540741 
	C26.478767,188.567291 26.573212,188.514175 26.525990,188.540741 
z"/>
<path fill="#05090B" opacity="1.000000" stroke="none" 
	d="
M45.874847,72.210159 
	C45.994247,72.432610 45.846893,72.801353 45.428665,73.312271 
	C45.307896,73.088440 45.457993,72.722443 45.874847,72.210159 
z"/>
<path fill="#05090B" opacity="1.000000" stroke="none" 
	d="
M25.541830,185.473755 
	C25.569012,185.521988 25.514648,185.425522 25.541830,185.473755 
z"/>
<path fill="#10100B" opacity="1.000000" stroke="none" 
	d="
M190.996002,29.003160 
	C190.877731,28.870331 190.763458,28.734377 190.649185,28.598427 
	C190.731750,28.643341 190.814331,28.688250 190.951431,28.862720 
	C191.005951,28.992283 191.000000,29.000034 190.996002,29.003160 
z"/>
<path fill="#05090B" opacity="1.000000" stroke="none" 
	d="
M43.820778,75.148956 
	C43.937088,75.360191 43.814194,75.699715 43.431866,76.144928 
	C43.308811,75.926163 43.445194,75.601707 43.820778,75.148956 
z"/>
<path fill="#05090B" opacity="1.000000" stroke="none" 
	d="
M244.474823,76.461502 
	C244.519623,76.436951 244.430038,76.486046 244.474823,76.461502 
z"/>
<path fill="#FAFAFA" opacity="1.000000" stroke="none" 
	d="
M113.015228,97.018906 
	C113.045792,93.073418 113.076363,89.127930 113.455559,84.598618 
	C114.913422,82.425453 116.707382,80.946030 116.983955,79.223030 
	C117.499344,76.012207 117.131905,72.659676 117.131905,69.101166 
	C132.462387,69.101166 147.349854,69.101166 162.695740,69.101166 
	C162.695740,70.968979 162.695679,72.596069 162.695740,74.223167 
	C162.696182,86.385689 162.693588,98.548218 162.698212,110.710739 
	C162.701111,118.344963 162.748001,118.386864 170.619904,118.388176 
	C179.783447,118.389694 188.947006,118.388924 198.110550,118.389084 
	C202.720047,118.389168 207.329544,118.389099 211.897888,118.389099 
	C211.897888,133.910873 211.897888,148.812714 211.897888,164.623779 
	C208.611008,163.855881 205.527634,163.793716 203.195358,162.438721 
	C199.558884,160.326004 196.431976,157.336151 191.725662,153.650085 
	C188.508011,137.485458 179.449768,133.609482 166.278702,144.863129 
	C162.352066,140.366135 157.757202,137.119339 151.449997,139.047119 
	C143.407852,141.505188 142.008820,148.517273 141.049973,155.480911 
	C132.339310,157.249069 128.632111,160.796906 128.010040,167.772797 
	C127.209206,176.753464 131.533539,182.907990 141.693237,187.247147 
	C141.566208,204.003647 145.374298,207.378998 162.433319,205.414627 
	C162.433319,208.018616 162.433319,210.596405 162.433319,213.401154 
	C147.281799,213.401154 132.407166,213.401154 117.139465,213.401154 
	C117.139465,211.419296 117.139526,209.781586 117.139465,208.143860 
	C117.138977,195.648117 117.152649,183.152328 117.131889,170.656631 
	C117.121712,164.530930 116.615578,164.000702 110.642563,163.985931 
	C99.646385,163.958710 88.650085,163.983109 77.653831,163.985596 
	C74.388535,163.986328 71.123230,163.985703 67.823593,163.985703 
	C67.823593,148.431976 67.823593,133.556137 67.823593,118.389099 
	C79.537872,118.389099 90.853882,118.490685 102.167397,118.365555 
	C119.639252,118.172318 116.829964,121.036552 117.186371,102.747612 
	C117.249664,99.500053 116.073074,97.716827 113.015228,97.018906 
z"/>
<path fill="#080C0F" opacity="1.000000" stroke="none" 
	d="
M112.712090,97.255356 
	C116.073074,97.716827 117.249664,99.500053 117.186371,102.747612 
	C116.829964,121.036552 119.639252,118.172318 102.167397,118.365555 
	C90.853882,118.490685 79.537872,118.389099 67.823593,118.389099 
	C67.823593,133.556137 67.823593,148.431976 67.823593,163.985703 
	C71.123230,163.985703 74.388535,163.986328 77.653831,163.985596 
	C88.650085,163.983109 99.646385,163.958710 110.642563,163.985931 
	C116.615578,164.000702 117.121712,164.530930 117.131889,170.656631 
	C117.152649,183.152328 117.138977,195.648117 117.139465,208.143860 
	C117.139526,209.781586 117.139465,211.419296 117.139465,213.401154 
	C132.407166,213.401154 147.281799,213.401154 162.433319,213.401154 
	C162.433319,210.596405 162.433319,208.018616 162.433319,205.414627 
	C145.374298,207.378998 141.566208,204.003647 141.693237,187.247147 
	C131.533539,182.907990 127.209206,176.753464 128.010040,167.772797 
	C128.632111,160.796906 132.339310,157.249069 141.049973,155.480911 
	C142.008820,148.517273 143.407852,141.505188 151.449997,139.047119 
	C157.757202,137.119339 162.352066,140.366135 166.278702,144.863129 
	C179.449768,133.609482 188.508011,137.485458 191.725662,153.650085 
	C196.431976,157.336151 199.558884,160.326004 203.195358,162.438721 
	C205.527634,163.793716 208.611008,163.855881 211.897888,164.623779 
	C211.897888,148.812714 211.897888,133.910873 211.897888,118.389099 
	C207.329544,118.389099 202.720047,118.389168 198.110550,118.389084 
	C188.947006,118.388924 179.783447,118.389694 170.619904,118.388176 
	C162.748001,118.386864 162.701111,118.344963 162.698212,110.710739 
	C162.693588,98.548218 162.696182,86.385689 162.695740,74.223167 
	C162.695679,72.596069 162.695740,70.968979 162.695740,69.101166 
	C147.349854,69.101166 132.462387,69.101166 117.131905,69.101166 
	C117.131905,72.659676 117.499344,76.012207 116.983955,79.223030 
	C116.707382,80.946030 114.913422,82.425453 113.434326,84.153893 
	C112.014191,82.597771 110.242439,80.977379 110.057320,79.192436 
	C109.612717,74.905403 109.973877,70.540016 109.892433,66.208450 
	C109.828735,62.820847 111.497299,61.324673 114.750221,61.324745 
	C131.415924,61.325127 148.081711,61.356850 164.747269,61.307735 
	C169.007614,61.295185 170.034454,63.590698 170.004837,67.388359 
	C169.893173,81.702820 169.960022,96.018669 169.960022,111.124367 
	C172.639526,111.124367 175.052826,111.124252 177.466125,111.124382 
	C189.298782,111.125038 201.131500,111.106972 212.964096,111.134293 
	C218.995926,111.148224 219.758301,111.949730 219.766296,118.139336 
	C219.786148,133.471771 219.797775,148.804245 219.787399,164.136688 
	C219.782974,170.676254 219.274033,171.148621 212.589966,171.174850 
	C210.117508,171.184555 207.644989,171.176407 205.026459,171.176407 
	C203.272552,179.096848 199.635895,185.119858 191.396805,186.895401 
	C192.020096,201.444458 187.462860,208.724182 169.960693,205.182953 
	C169.960693,208.719833 169.849854,212.138840 169.990234,215.547501 
	C170.147064,219.354996 168.466721,221.057846 164.674011,221.048264 
	C148.175079,221.006592 131.675858,220.996140 115.177025,221.055771 
	C111.365509,221.069534 109.832069,219.438019 109.866753,215.605026 
	C109.984360,202.606827 109.910088,189.606918 109.909149,176.607651 
	C109.909035,174.980377 109.909134,173.353088 109.909134,171.169266 
	C103.377945,171.169266 97.263672,171.170441 91.149391,171.168991 
	C82.483231,171.166931 73.816452,171.101776 65.151237,171.190903 
	C61.840511,171.224960 60.101578,169.869705 60.098469,166.523926 
	C60.082840,149.691772 60.085064,132.859619 60.075500,116.027473 
	C60.073219,112.009361 62.454411,111.066689 65.978607,111.090302 
	C78.643997,111.175148 91.310287,111.126930 103.976234,111.128906 
	C105.772453,111.129181 107.568665,111.128937 109.126892,111.128937 
	C111.648758,106.587898 107.110748,100.904335 112.712090,97.255356 
M142.136490,179.403992 
	C142.441788,179.273697 142.747086,179.143402 143.652588,179.024445 
	C144.094727,178.675354 144.536865,178.326263 145.618546,177.600296 
	C147.629852,172.379776 146.757141,167.732056 143.058136,164.723419 
	C141.025925,163.070480 138.855286,161.946976 137.000000,164.994934 
	C137.000000,164.994934 136.840286,164.845795 136.279022,165.151749 
	C136.131775,165.756546 135.984512,166.361343 135.641571,167.171127 
	C135.641571,167.171127 135.679626,167.451981 135.232010,168.111343 
	C135.263580,174.655762 136.999664,177.480103 142.000534,179.001068 
	C142.000534,179.001068 141.957596,179.052399 142.136490,179.403992 
M160.467590,197.958954 
	C165.698059,198.264160 170.959488,198.314972 176.150208,198.946777 
	C181.250092,199.567520 184.133820,198.207672 183.634796,193.228851 
	C183.143692,188.329086 181.708771,182.960510 178.983002,178.959061 
	C172.165024,168.950211 160.286560,169.264877 153.306824,179.186661 
	C151.443909,181.834824 150.029617,185.034195 149.283295,188.187363 
	C147.171051,197.111664 150.664795,200.309174 160.467590,197.958954 
M149.439804,159.545807 
	C149.953171,160.584961 150.199142,162.012024 151.032700,162.586655 
	C153.093338,164.007111 155.641602,166.233841 157.581894,165.879654 
	C159.436447,165.541107 162.039001,162.371902 162.066528,160.415314 
	C162.121460,156.509720 161.448273,152.135880 159.593735,148.772644 
	C157.043015,144.146851 151.470383,144.936462 149.730240,149.987717 
	C148.809265,152.661087 149.303482,155.821991 149.439804,159.545807 
M183.208939,160.261154 
	C183.456879,159.467484 183.804657,158.690079 183.936859,157.877579 
	C184.957672,151.603882 182.629623,146.379654 178.668427,145.960571 
	C174.582611,145.528336 170.500198,150.614960 170.178345,156.581741 
	C169.954514,160.731476 171.304611,164.400375 175.304810,165.822205 
	C179.264145,167.229523 181.194199,163.943954 183.208939,160.261154 
M188.099228,166.837906 
	C187.767029,167.413330 187.148453,167.989609 187.150208,168.564011 
	C187.159821,171.733612 187.091797,174.942780 187.632111,178.036758 
	C187.734451,178.622787 191.296829,179.525894 191.823608,178.954926 
	C193.958374,176.641220 195.533966,173.810989 197.304169,171.163513 
	C197.387619,171.038712 197.422745,170.816498 197.373367,170.677734 
	C196.583298,168.457764 196.358292,165.334061 194.782440,164.325241 
	C193.585464,163.558960 190.664917,165.485001 188.099228,166.837906 
z"/>
<path fill="#7FBECE" opacity="1.000000" stroke="none" 
	d="
M177.077209,31.649101 
	C178.025208,31.582890 179.091232,31.869747 180.407928,32.385780 
	C179.504166,32.410690 178.349701,32.206432 177.077209,31.649101 
z"/>
<path fill="#7FBECE" opacity="1.000000" stroke="none" 
	d="
M205.024994,45.560745 
	C204.961014,45.251640 205.405319,45.198589 205.628876,45.189396 
	C206.222061,45.579914 206.591690,45.979630 207.070862,46.633705 
	C206.483276,46.548660 205.786118,46.209255 205.024994,45.560745 
z"/>
<path fill="#7FBECE" opacity="1.000000" stroke="none" 
	d="
M199.469009,41.187759 
	C199.759445,41.244408 199.843491,41.644573 199.879807,41.845764 
	C199.381393,41.840675 198.846649,41.634399 198.170776,41.165810 
	C198.412628,40.979366 198.795593,41.055241 199.469009,41.187759 
z"/>
<path fill="#7FBECE" opacity="1.000000" stroke="none" 
	d="
M194.317871,39.004929 
	C194.769165,38.914486 195.341049,39.132576 196.081482,39.611984 
	C195.646164,39.686687 195.042313,39.500076 194.317871,39.004929 
z"/>
<path fill="#7FBECE" opacity="1.000000" stroke="none" 
	d="
M193.121002,38.296162 
	C193.307358,38.148888 193.645294,38.214542 194.118103,38.508423 
	C193.926163,38.660797 193.599365,38.584942 193.121002,38.296162 
z"/>
<path fill="#3DBBE5" opacity="1.000000" stroke="none" 
	d="
M160.044815,198.027283 
	C150.664795,200.309174 147.171051,197.111664 149.283295,188.187363 
	C150.029617,185.034195 151.443909,181.834824 153.306824,179.186661 
	C160.286560,169.264877 172.165024,168.950211 178.983002,178.959061 
	C181.708771,182.960510 183.143692,188.329086 183.634796,193.228851 
	C184.133820,198.207672 181.250092,199.567520 176.150208,198.946777 
	C170.959488,198.314972 165.698059,198.264160 160.044815,198.027283 
z"/>
<path fill="#43B6DE" opacity="1.000000" stroke="none" 
	d="
M149.299301,159.154297 
	C149.303482,155.821991 148.809265,152.661087 149.730240,149.987717 
	C151.470383,144.936462 157.043015,144.146851 159.593735,148.772644 
	C161.448273,152.135880 162.121460,156.509720 162.066528,160.415314 
	C162.039001,162.371902 159.436447,165.541107 157.581894,165.879654 
	C155.641602,166.233841 153.093338,164.007111 151.032700,162.586655 
	C150.199142,162.012024 149.953171,160.584961 149.299301,159.154297 
z"/>
<path fill="#3FB6DE" opacity="1.000000" stroke="none" 
	d="
M183.062439,160.636642 
	C181.194199,163.943954 179.264145,167.229523 175.304810,165.822205 
	C171.304611,164.400375 169.954514,160.731476 170.178345,156.581741 
	C170.500198,150.614960 174.582611,145.528336 178.668427,145.960571 
	C182.629623,146.379654 184.957672,151.603882 183.936859,157.877579 
	C183.804657,158.690079 183.456879,159.467484 183.062439,160.636642 
z"/>
<path fill="#46B1D8" opacity="1.000000" stroke="none" 
	d="
M188.305252,166.525513 
	C190.664917,165.485001 193.585464,163.558960 194.782440,164.325241 
	C196.358292,165.334061 196.583298,168.457764 197.373367,170.677734 
	C197.422745,170.816498 197.387619,171.038712 197.304169,171.163513 
	C195.533966,173.810989 193.958374,176.641220 191.823608,178.954926 
	C191.296829,179.525894 187.734451,178.622787 187.632111,178.036758 
	C187.091797,174.942780 187.159821,171.733612 187.150208,168.564011 
	C187.148453,167.989609 187.767029,167.413330 188.305252,166.525513 
z"/>
<path fill="#38C0EC" opacity="1.000000" stroke="none" 
	d="
M144.979004,177.977173 
	C144.536865,178.326263 144.094727,178.675354 143.076996,178.982574 
	C142.320145,178.977936 142.138870,179.015167 141.957596,179.052399 
	C141.957596,179.052399 142.000534,179.001068 141.943176,178.684479 
	C139.817078,174.729248 137.748352,171.090622 135.679626,167.451981 
	C135.679626,167.451981 135.641571,167.171127 136.014832,166.904938 
	C136.538818,166.041092 136.689560,165.443451 136.840286,164.845795 
	C136.840286,164.845795 137.000000,164.994934 137.311523,164.966431 
	C139.697067,166.067368 142.834488,166.719284 143.604553,168.434219 
	C144.870117,171.252655 144.601028,174.760193 144.979004,177.977173 
z"/>
<path fill="#46A4C6" opacity="1.000000" stroke="none" 
	d="
M145.298767,177.788727 
	C144.601028,174.760193 144.870117,171.252655 143.604553,168.434219 
	C142.834488,166.719284 139.697067,166.067368 137.231796,164.890259 
	C138.855286,161.946976 141.025925,163.070480 143.058136,164.723419 
	C146.757141,167.732056 147.629852,172.379776 145.298767,177.788727 
z"/>
<path fill="#46A4C6" opacity="1.000000" stroke="none" 
	d="
M135.455811,167.781662 
	C137.748352,171.090622 139.817078,174.729248 141.922440,178.711609 
	C136.999664,177.480103 135.263580,174.655762 135.455811,167.781662 
z"/>
<path fill="#46A4C6" opacity="1.000000" stroke="none" 
	d="
M136.559662,164.998779 
	C136.689560,165.443451 136.538818,166.041092 136.112671,166.802444 
	C135.984512,166.361343 136.131775,165.756546 136.559662,164.998779 
z"/>
<path fill="#46A4C6" opacity="1.000000" stroke="none" 
	d="
M142.047043,179.228195 
	C142.138870,179.015167 142.320145,178.977936 142.776901,178.976898 
	C142.747086,179.143402 142.441788,179.273697 142.047043,179.228195 
z"/>
</svg>